<?xml version="1.0" encoding="UTF-8"?>
<svg version="1.1" xmlns="http://www.w3.org/2000/svg" width="96" height="96">
<path d="M0 0 C31.68 0 63.36 0 96 0 C96 31.68 96 63.36 96 96 C64.32 96 32.64 96 0 96 C0 64.32 0 32.64 0 0 Z " fill="#FEFEFE" transform="translate(0,0)"/>
<path d="M0 0 C3.44359855 1.28290926 4.52929009 1.96320296 6.1875 5.1875 C6.875 7.4375 6.875 7.4375 7.1875 9.1875 C8.280625 9.27 9.37375 9.3525 10.5 9.4375 C14.1875 10.1875 14.1875 10.1875 16.125 11.875 C17.53339562 14.94033164 17.66522045 16.84345685 17.1875 20.1875 C14.52827216 24.69662547 10.42023494 27.3790621 6.2109375 30.34375 C3.89250788 32.4562959 3.12999658 34.22826342 2.1875 37.1875 C2.97125 36.5275 3.755 35.8675 4.5625 35.1875 C7.1875 33.1875 7.1875 33.1875 9.1875 33.1875 C8.8575 32.1975 8.5275 31.2075 8.1875 30.1875 C11.48299466 28.46485506 14.51868845 26.89304068 18.1875 26.1875 C18.1875 27.1775 18.1875 28.1675 18.1875 29.1875 C17.4140625 29.868125 17.4140625 29.868125 16.625 30.5625 C16.150625 31.09875 15.67625 31.635 15.1875 32.1875 C15.44225806 34.71141899 15.44225806 34.71141899 16.1875 37.1875 C16.1875 38.1775 16.1875 39.1675 16.1875 40.1875 C14.8675 39.5275 13.5475 38.8675 12.1875 38.1875 C12.1875 37.1975 12.1875 36.2075 12.1875 35.1875 C11.74019531 35.63222656 11.29289062 36.07695313 10.83203125 36.53515625 C10.22746094 37.10105469 9.62289062 37.66695312 9 38.25 C8.40832031 38.81847656 7.81664063 39.38695312 7.20703125 39.97265625 C5.1875 41.1875 5.1875 41.1875 2.8515625 41.01391602 C-2.38201254 39.39041423 -5.83619252 34.85978356 -9.625 31.0625 C-10.50865234 30.21945313 -11.39230469 29.37640625 -12.30273438 28.5078125 C-18.60739154 22.23723456 -18.60739154 22.23723456 -19.57421875 17.2890625 C-18.78336875 14.06888354 -18.26936681 12.83725846 -15.8125 10.6875 C-15.173125 10.1203125 -14.53375 9.553125 -13.875 8.96875 C-13.194375 8.3809375 -12.51375 7.793125 -11.8125 7.1875 C-10.8225 6.18203125 -10.8225 6.18203125 -9.8125 5.15625 C-4.81496508 0.23680156 -4.81496508 0.23680156 0 0 Z " fill="#222220" transform="translate(48.8125,25.8125)"/>
<path d="M0 0 C0.66 0.33 1.32 0.66 2 1 C2 1.99 2 2.98 2 4 C0.02 4.99 0.02 4.99 -2 6 C-2 6.66 -2 7.32 -2 8 C-6.47058824 12 -6.47058824 12 -9 12 C-8.52379711 7.62346871 -7.33100111 5.93461995 -3.9375 3.1875 C-3.20402344 2.58292969 -2.47054687 1.97835937 -1.71484375 1.35546875 C-1.14894531 0.90816406 -0.58304688 0.46085937 0 0 Z " fill="#E5E5E4" transform="translate(60,51)"/>
</svg>
