<svg xmlns="http://www.w3.org/2000/svg" version="1.1" xmlns:xlink="http://www.w3.org/1999/xlink" width="512" height="512"><svg width="512" height="512" viewBox="0 0 512 512" fill="none" xmlns="http://www.w3.org/2000/svg">
<rect width="512" height="512" fill="#F6F5F3"></rect>
<path d="M220.086 307.896C220.024 314.326 218.004 320.94 214.268 326.145C212.615 328.472 210.716 330.615 208.512 332.33C207.471 333.187 206.552 333.8 205.572 334.351C205.021 334.657 204.47 334.963 203.919 335.208C205.389 334.534 201.469 336.127 202.755 335.637C203.919 335.208 200.979 336.127 201.224 336.065C202.633 335.698 200.673 336.188 200.306 336.249C198.897 336.494 198.469 336.494 196.693 336.433C193.876 336.31 191.12 335.698 188.487 334.718C182.485 332.514 177.341 328.472 173.545 323.328C165.767 312.979 164.971 297.914 171.524 286.769C172.993 284.258 174.892 281.808 177.035 279.849C177.954 278.991 179.056 278.134 180.097 277.46C181.812 276.297 181.016 276.848 180.771 277.032C181.077 276.848 183.71 275.501 182.914 275.868C183.465 275.623 184.078 275.378 184.629 275.195C182.975 275.807 185.854 274.827 185.915 274.827C184.384 275.195 188.364 274.46 188.119 274.521C190.263 274.337 193.508 274.643 195.958 275.317C210.594 279.175 219.841 293.137 220.086 307.835C220.086 312.244 237.906 309.182 237.845 303.058C237.6 286.769 226.393 272.194 210.777 267.54C192.773 262.212 170.85 268.213 158.541 282.604C147.763 295.219 146.294 313.652 155.418 327.614C165.339 342.863 184.016 347.578 201.102 343.904C221.188 339.617 237.539 324.246 237.845 303.058C237.845 298.771 220.208 301.649 220.086 307.835V307.896Z" fill="#533800"></path>
<path d="M192.773 126.633C162.093 134.961 142.374 159.334 140.782 190.872L137.169 260.377L136.006 283.586C135.638 290.506 153.336 286.955 153.703 281.259C156.153 241.883 213.35 243.169 233.497 267.297C236.559 270.971 238.396 275.932 242.683 278.381C248.01 281.443 254.93 280.892 260.503 278.932C271.771 275.013 275.384 262.827 284.753 256.152C301.594 244.027 334.785 245.374 349.666 260.806C356.096 267.481 359.28 278.075 357.198 287.2L374.957 283.648V195.648C374.957 180.951 375.692 166.805 368.099 153.394C354.871 130.001 329.09 124.734 304.533 121.06C267.239 115.487 229.394 117.631 192.773 126.633C190.324 127.245 184.078 129.695 185.057 133.247C186.037 136.798 192.773 135.635 195.039 135.084C226.21 127.429 258.605 125.592 290.387 129.94C314.699 133.247 341.337 137.839 352.667 162.641C358.117 174.644 357.198 187.565 357.198 200.364V288.363C357.198 293.936 373.855 289.527 374.957 284.811C384.449 242.924 326.763 234.718 298.409 240.903C284.937 243.843 272.383 250.273 262.952 260.377C260.932 262.582 259.033 264.848 257.319 267.297C256.584 268.338 255.849 269.44 255.236 270.543L257.257 270.114C256.278 269.318 255.481 268.399 254.93 267.297C251.623 262.827 248.868 258.418 244.581 254.743C223.148 236.433 186.466 236.066 162.154 248.436C149.111 255.172 136.985 268.277 136.006 283.586L153.703 281.259C154.928 257.499 156.153 233.739 157.378 209.917C157.806 201.282 158.113 192.648 158.725 184.074C160.195 162.274 173.116 141.024 195.101 135.084C197.55 134.41 203.796 132.083 202.817 128.47C201.837 124.857 195.101 126.02 192.835 126.633H192.773Z" fill="#533800"></path>
<path d="M245.5 148.31V238.82C245.5 248.373 263.504 245.985 263.504 237.595V147.085C263.504 137.532 245.5 139.92 245.5 148.31Z" fill="#533800"></path>
<path d="M349.176 286.709C343.419 279.85 336.01 273.91 328.11 269.807C311.514 261.173 290.877 265.398 279.181 280.156C271.954 289.342 267.3 301.774 265.341 313.225C264.055 320.819 264.238 328.718 268.77 335.21C277.037 347.09 295.47 346.722 308.146 345.62C319.414 344.64 330.682 342.007 341.399 338.394C343.542 337.659 348.747 334.536 346.236 331.78C343.726 329.025 337.357 330.923 334.54 331.903C338.949 330.433 336.132 331.352 334.969 331.719C333.376 332.209 331.784 332.638 330.253 333.066C328.049 333.679 325.783 334.23 323.517 334.72C320.578 335.822 322.598 334.903 323.517 334.72C322.905 334.965 322.231 334.965 321.619 335.087C320.149 335.332 318.618 335.638 317.148 335.822C315.679 336.006 314.209 336.251 312.739 336.373C312.127 336.434 311.453 336.496 310.841 336.557C310.29 336.557 308.514 336.679 311.147 336.557C310.657 336.557 310.167 336.557 309.738 336.618C308.33 336.679 306.86 336.741 305.452 336.741C304.656 336.741 303.86 336.741 303.063 336.741C302.757 336.741 302.451 336.741 302.145 336.741C300.491 336.741 303.921 336.985 302.267 336.741C300.92 336.557 299.573 336.434 298.164 336.189C297.43 336.067 296.695 335.883 295.96 335.699C294.245 335.332 296.633 336.006 295.041 335.455C293.694 334.965 292.408 334.475 291.183 333.862C290.693 333.617 290.203 333.372 289.775 333.066C290.877 333.74 288.917 332.393 288.611 332.148C284.325 328.596 282.61 323.758 282.426 317.695C282.181 307.714 286.284 296.752 290.693 287.995C291.673 286.097 292.775 284.259 293.939 282.545C294.613 281.626 295.286 280.708 295.96 279.789C296.327 279.36 298.042 277.523 297.307 278.197C297.981 277.523 298.716 276.911 299.45 276.298C299.757 276.053 300.063 275.87 300.308 275.625C301.655 274.522 299.267 276.237 300.246 275.686C300.981 275.257 303.063 274.522 300.675 275.319C300.981 275.196 301.288 275.012 301.594 274.951C303.676 274.155 300.675 275.196 301.288 274.951C303.676 274.216 300.43 274.951 301.41 274.89C301.777 274.89 302.206 274.829 302.574 274.706C304.227 274.4 301.9 274.951 301.961 274.706C301.961 274.584 303.553 274.706 303.798 274.706C305.39 274.645 302.084 274.4 303.615 274.706C304.043 274.767 304.533 274.829 304.962 274.89C305.574 275.012 306.125 275.135 306.738 275.257C308.514 275.625 306.064 274.951 307.779 275.564C309.248 276.053 310.657 276.605 312.065 277.217C313.596 277.952 315.066 278.748 316.536 279.605C317.271 280.034 318.312 280.708 319.843 281.81C322.109 283.463 324.313 285.239 326.395 287.138C328.6 289.158 330.804 291.241 332.703 293.568C336.316 297.916 353.34 291.73 349.237 286.831L349.176 286.709Z" fill="#533800"></path>
<path d="M177.525 368.523C190.508 379.301 207.471 386.16 223.76 389.957C262.218 398.897 301.533 388.426 334.417 367.788C337.234 366.013 339.194 362.889 335.887 360.624C332.58 358.358 326.273 360.379 323.333 362.216C295.041 379.975 262.769 387.875 230.006 378.934C220.698 376.362 211.696 372.565 203.306 367.666C199.571 365.523 196.264 363.379 193.998 361.481C189.038 357.378 172.504 364.359 177.525 368.523Z" fill="#533800"></path>
</svg><style>@media (prefers-color-scheme: light) { :root { filter: none; } }
@media (prefers-color-scheme: dark) { :root { filter: none; } }
</style></svg>