<svg width="16" height="16" viewBox="0 0 16 16" fill="none" xmlns="http://www.w3.org/2000/svg">
<mask id="mask0_229_271" style="mask-type:alpha" maskUnits="userSpaceOnUse" x="0" y="0" width="16" height="16">
<rect width="16" height="16" fill="#D9D9D9"/>
</mask>
<g mask="url(#mask0_229_271)">
<path d="M10.859 4.68733L4.3487 11.1847C4.28637 11.2471 4.20987 11.2762 4.1192 11.2718C4.02865 11.2676 3.95215 11.2343 3.8897 11.1718C3.82737 11.1095 3.7962 11.0352 3.7962 10.9488C3.7962 10.8625 3.82737 10.7882 3.8897 10.7258L10.3872 4.21549H4.5257C4.43126 4.21549 4.35209 4.18349 4.2882 4.11949C4.22431 4.05549 4.19237 3.97622 4.19237 3.88166C4.19237 3.78711 4.22431 3.70799 4.2882 3.64433C4.35209 3.58066 4.43126 3.54883 4.5257 3.54883H10.9872C11.1398 3.54883 11.2676 3.60044 11.3709 3.70366C11.4741 3.80688 11.5257 3.93477 11.5257 4.08733V10.5488C11.5257 10.6433 11.4937 10.7224 11.4297 10.7863C11.3657 10.8502 11.2864 10.8822 11.1919 10.8822C11.0973 10.8822 11.0182 10.8502 10.9545 10.7863C10.8909 10.7224 10.859 10.6433 10.859 10.5488V4.68733Z" fill="#533800"/>
</g>
</svg>
