<svg width="20" height="20" viewBox="0 0 20 20" fill="none" xmlns="http://www.w3.org/2000/svg">
<mask id="mask0_229_42" style="mask-type:alpha" maskUnits="userSpaceOnUse" x="0" y="0" width="20" height="20">
<rect width="20" height="20" fill="#D9D9D9"/>
</mask>
<g mask="url(#mask0_229_42)">
<path d="M13.5738 6.00638L5.43586 14.128C5.35795 14.2061 5.26232 14.2424 5.14899 14.237C5.03579 14.2317 4.94017 14.1901 4.86211 14.112C4.7842 14.0341 4.74524 13.9412 4.74524 13.8333C4.74524 13.7253 4.7842 13.6324 4.86211 13.5545L12.984 5.41659H5.65711C5.53906 5.41659 5.4401 5.37659 5.36024 5.29659C5.28038 5.21659 5.24045 5.11749 5.24045 4.99929C5.24045 4.8811 5.28038 4.78221 5.36024 4.70263C5.4401 4.62304 5.53906 4.58325 5.65711 4.58325H13.734C13.9247 4.58325 14.0845 4.64777 14.2136 4.77679C14.3426 4.90582 14.4071 5.06568 14.4071 5.25638V13.3333C14.4071 13.4513 14.3671 13.5503 14.2871 13.6301C14.2071 13.71 14.108 13.7499 13.9898 13.7499C13.8716 13.7499 13.7727 13.71 13.6932 13.6301C13.6136 13.5503 13.5738 13.4513 13.5738 13.3333V6.00638Z" fill="#533800"/>
</g>
</svg>
