<svg width="25" height="24" viewBox="0 0 25 24" fill="none" xmlns="http://www.w3.org/2000/svg">
<mask id="mask0_229_133" style="mask-type:alpha" maskUnits="userSpaceOnUse" x="0" y="0" width="25" height="24">
<rect x="0.5" width="24" height="24" fill="#D9D9D9"/>
</mask>
<g mask="url(#mask0_229_133)">
<path d="M6.1155 20C5.65517 20 5.27083 19.8458 4.9625 19.5375C4.65417 19.2292 4.5 18.8448 4.5 18.3845V5.6155C4.5 5.15517 4.65417 4.77083 4.9625 4.4625C5.27083 4.15417 5.65517 4 6.1155 4H12.873C13.0875 4 13.2511 4.09133 13.3637 4.274C13.4764 4.45667 13.4917 4.65058 13.4095 4.85575C13.3262 5.12242 13.2563 5.39117 13.2 5.662C13.1437 5.93283 13.1155 6.21217 13.1155 6.5C13.1155 7.85133 13.5918 9.00325 14.5443 9.95575C15.4968 10.9082 16.6487 11.3845 18 11.3845C18.2878 11.3845 18.5672 11.3563 18.838 11.3C19.1088 11.2437 19.3776 11.1738 19.6443 11.0905C19.8623 11.0122 20.0593 11.0275 20.2355 11.1365C20.4118 11.2455 20.5 11.409 20.5 11.627V18.3845C20.5 18.8448 20.3458 19.2292 20.0375 19.5375C19.7292 19.8458 19.3448 20 18.8845 20H6.1155ZM7.26925 16.3845H17.7308L14.5 12.077L11.5 15.8655L9.5 13.4615L7.26925 16.3845ZM17.9992 9C17.8574 9 17.7387 8.95208 17.6432 8.85625C17.5477 8.76042 17.5 8.64167 17.5 8.5V7H16C15.8583 7 15.7396 6.952 15.6438 6.856C15.5479 6.76 15.5 6.64108 15.5 6.49925C15.5 6.35742 15.5479 6.23875 15.6438 6.14325C15.7396 6.04775 15.8583 6 16 6H17.5V4.5C17.5 4.35833 17.548 4.23958 17.644 4.14375C17.74 4.04792 17.8589 4 18.0008 4C18.1426 4 18.2613 4.04792 18.3568 4.14375C18.4523 4.23958 18.5 4.35833 18.5 4.5V6H20C20.1417 6 20.2604 6.048 20.3562 6.144C20.4521 6.24 20.5 6.35892 20.5 6.50075C20.5 6.64258 20.4521 6.76125 20.3562 6.85675C20.2604 6.95225 20.1417 7 20 7H18.5V8.5C18.5 8.64167 18.452 8.76042 18.356 8.85625C18.26 8.95208 18.1411 9 17.9992 9Z" fill="#111111"/>
</g>
</svg>
