<svg width="98" height="98" viewBox="0 0 98 98" fill="none" xmlns="http://www.w3.org/2000/svg">
<g filter="url(#filter0_d_153_1917)">
<circle cx="49" cy="49" r="44.5" fill="#E5E4E2" stroke="white"/>
<path fill-rule="evenodd" clip-rule="evenodd" d="M49.5 31.0001C45.9057 31.0001 43.0556 33.8308 43.0556 37.1675V47.3883C43.0556 50.7233 45.9057 53.5557 49.5 53.5557C53.0944 53.5557 55.9445 50.7233 55.9445 47.3883V37.1675C55.9445 33.8325 53.0944 31.0001 49.5 31.0001Z" fill="#533800" fill-opacity="0.5"/>
<path d="M51.1111 61.5226V64.8335C51.1111 65.2607 50.9414 65.6705 50.6392 65.9727C50.3371 66.2748 49.9273 66.4446 49.5 66.4446C49.0727 66.4446 48.6629 66.2748 48.3608 65.9727C48.0586 65.6705 47.8889 65.2607 47.8889 64.8335V61.5226C44.3441 61.1263 41.0698 59.4373 38.6919 56.7786C36.3141 54.1199 34.9997 50.6781 35 47.1112C35 46.6839 35.1697 46.2741 35.4719 45.972C35.774 45.6699 36.1838 45.5001 36.6111 45.5001C37.0384 45.5001 37.4482 45.6699 37.7503 45.972C38.0525 46.2741 38.2222 46.6839 38.2222 47.1112C38.2222 48.5923 38.5139 50.0588 39.0807 51.4271C39.6475 52.7953 40.4782 54.0386 41.5254 55.0858C42.5726 56.1331 43.8159 56.9638 45.1842 57.5305C46.5525 58.0973 48.019 58.389 49.5 58.389C50.981 58.389 52.4475 58.0973 53.8158 57.5305C55.1841 56.9638 56.4274 56.1331 57.4746 55.0858C58.5218 54.0386 59.3525 52.7953 59.9193 51.4271C60.4861 50.0588 60.7778 48.5923 60.7778 47.1112C60.7778 46.6839 60.9475 46.2741 61.2497 45.972C61.5518 45.6699 61.9616 45.5001 62.3889 45.5001C62.8162 45.5001 63.226 45.6699 63.5281 45.972C63.8303 46.2741 64 46.6839 64 47.1112C64.0003 50.6781 62.6859 54.1199 60.3081 56.7786C57.9302 59.4373 54.6559 61.1263 51.1111 61.5226Z" fill="#533800" fill-opacity="0.5"/>
</g>
<defs>
<filter id="filter0_d_153_1917" x="0" y="0" width="98" height="98" filterUnits="userSpaceOnUse" color-interpolation-filters="sRGB">
<feFlood flood-opacity="0" result="BackgroundImageFix"/>
<feColorMatrix in="SourceAlpha" type="matrix" values="0 0 0 0 0 0 0 0 0 0 0 0 0 0 0 0 0 0 127 0" result="hardAlpha"/>
<feOffset/>
<feGaussianBlur stdDeviation="2"/>
<feComposite in2="hardAlpha" operator="out"/>
<feColorMatrix type="matrix" values="0 0 0 0 0 0 0 0 0 0 0 0 0 0 0 0 0 0 0.25 0"/>
<feBlend mode="normal" in2="BackgroundImageFix" result="effect1_dropShadow_153_1917"/>
<feBlend mode="normal" in="SourceGraphic" in2="effect1_dropShadow_153_1917" result="shape"/>
</filter>
</defs>
</svg>
