<svg width="98" height="98" viewBox="0 0 98 98" fill="none" xmlns="http://www.w3.org/2000/svg">
<g filter="url(#filter0_d_155_1680)">
<circle cx="49" cy="49" r="44.5" fill="#E5E4E2" stroke="white"/>
<path d="M48.9083 38.5833C46.63 38.5833 44.7917 38.5833 43.3467 38.7783C41.8467 38.9783 40.5833 39.4116 39.58 40.4133C38.5767 41.4166 38.1467 42.6799 37.945 44.1799C37.75 45.6249 37.75 47.4633 37.75 49.7416V49.9249C37.75 52.2033 37.75 54.0416 37.945 55.4866C38.145 56.9866 38.5783 58.2499 39.58 59.2533C40.5833 60.2566 41.8467 60.6866 43.3467 60.8899C44.7917 61.0833 46.63 61.0833 48.9083 61.0833H49.0917C51.37 61.0833 53.2083 61.0833 54.6533 60.8899C56.1533 60.6866 57.4167 60.2566 58.42 59.2533C59.4233 58.2499 59.8533 56.9866 60.0567 55.4866C60.25 54.0416 60.25 52.2033 60.25 49.9249V49.7416C60.25 47.4633 60.25 45.6249 60.0567 44.1799C59.8533 42.6799 59.4233 41.4166 58.42 40.4133C57.4167 39.4099 56.1533 38.9799 54.6533 38.7783C53.2083 38.5833 51.37 38.5833 49.0917 38.5833H48.9083Z" fill="#533800" fill-opacity="0.5"/>
</g>
<defs>
<filter id="filter0_d_155_1680" x="0" y="0" width="98" height="98" filterUnits="userSpaceOnUse" color-interpolation-filters="sRGB">
<feFlood flood-opacity="0" result="BackgroundImageFix"/>
<feColorMatrix in="SourceAlpha" type="matrix" values="0 0 0 0 0 0 0 0 0 0 0 0 0 0 0 0 0 0 127 0" result="hardAlpha"/>
<feOffset/>
<feGaussianBlur stdDeviation="2"/>
<feComposite in2="hardAlpha" operator="out"/>
<feColorMatrix type="matrix" values="0 0 0 0 0 0 0 0 0 0 0 0 0 0 0 0 0 0 0.25 0"/>
<feBlend mode="normal" in2="BackgroundImageFix" result="effect1_dropShadow_155_1680"/>
<feBlend mode="normal" in="SourceGraphic" in2="effect1_dropShadow_155_1680" result="shape"/>
</filter>
</defs>
</svg>
