<svg width="20" height="20" viewBox="0 0 20 20" fill="none" xmlns="http://www.w3.org/2000/svg">
<path d="M17.5001 9.16662C17.0001 9.16662 16.6667 9.49996 16.6667 9.99996C16.6667 12.4166 15.4167 14.5833 13.3334 15.75C10.1667 17.5833 6.08341 16.5 4.25008 13.3333C2.41675 10.1666 3.50008 6.08329 6.66675 4.24996C9.41675 2.66663 12.7501 3.24996 14.8334 5.41663H12.8334C12.3334 5.41663 12.0001 5.74996 12.0001 6.24996C12.0001 6.74996 12.3334 7.08329 12.8334 7.08329H16.5834C17.0834 7.08329 17.4167 6.74996 17.4167 6.24996V2.49996C17.4167 1.99996 17.0834 1.66663 16.5834 1.66663C16.0834 1.66663 15.7501 1.99996 15.7501 2.49996V3.99996C14.1667 2.49996 12.1667 1.66663 10.0001 1.66663C5.41675 1.66663 1.66675 5.41663 1.66675 9.99996C1.66675 14.5833 5.41675 18.3333 10.0001 18.3333C14.5834 18.3333 18.3334 14.5833 18.3334 9.99996C18.3334 9.49996 18.0001 9.16662 17.5001 9.16662Z" fill="#111111"/>
</svg>
