<svg width="48" height="48" viewBox="0 0 48 48" fill="none" xmlns="http://www.w3.org/2000/svg">
<g filter="url(#filter0_d_650_497)">
<rect width="40" height="40" rx="20" transform="matrix(1 0 0 -1 4 44)" fill="#533800"/>
<rect x="0.5" y="-0.5" width="39" height="39" rx="19.5" transform="matrix(1 0 0 -1 4 43)" stroke="#E5E4E2"/>
<path d="M23.0001 28.175L18.1001 23.275C17.9001 23.075 17.6668 22.9791 17.4001 22.9875C17.1334 22.9958 16.9001 23.1 16.7001 23.3C16.5168 23.5 16.4209 23.7333 16.4126 24C16.4043 24.2666 16.5001 24.5 16.7001 24.7L23.3001 31.3C23.4001 31.4 23.5084 31.4708 23.6251 31.5125C23.7418 31.5541 23.8668 31.575 24.0001 31.575C24.1334 31.575 24.2584 31.5541 24.3751 31.5125C24.4918 31.4708 24.6001 31.4 24.7001 31.3L31.3001 24.7C31.4834 24.5166 31.5751 24.2875 31.5751 24.0125C31.5751 23.7375 31.4834 23.5 31.3001 23.3C31.1001 23.1 30.8626 23 30.5876 23C30.3126 23 30.0751 23.1 29.8751 23.3L25.0001 28.175V17C25.0001 16.7166 24.9043 16.4791 24.7126 16.2875C24.5209 16.0958 24.2834 16 24.0001 16C23.7168 16 23.4793 16.0958 23.2876 16.2875C23.0959 16.4791 23.0001 16.7166 23.0001 17V28.175Z" fill="white"/>
</g>
<defs>
<filter id="filter0_d_650_497" x="0" y="0" width="48" height="48" filterUnits="userSpaceOnUse" color-interpolation-filters="sRGB">
<feFlood flood-opacity="0" result="BackgroundImageFix"/>
<feColorMatrix in="SourceAlpha" type="matrix" values="0 0 0 0 0 0 0 0 0 0 0 0 0 0 0 0 0 0 127 0" result="hardAlpha"/>
<feOffset/>
<feGaussianBlur stdDeviation="2"/>
<feComposite in2="hardAlpha" operator="out"/>
<feColorMatrix type="matrix" values="0 0 0 0 0 0 0 0 0 0 0 0 0 0 0 0 0 0 0.05 0"/>
<feBlend mode="normal" in2="BackgroundImageFix" result="effect1_dropShadow_650_497"/>
<feBlend mode="normal" in="SourceGraphic" in2="effect1_dropShadow_650_497" result="shape"/>
</filter>
</defs>
</svg>
