<svg width="22" height="22" viewBox="0 0 22 22" fill="none" xmlns="http://www.w3.org/2000/svg">
<path d="M3.66667 19.25C3.40694 19.25 3.18924 19.1622 3.01354 18.9865C2.83785 18.8108 2.75 18.5931 2.75 18.3333V16.1104C2.75 15.866 2.79583 15.633 2.8875 15.4115C2.97917 15.1899 3.10903 14.9951 3.27708 14.8271L14.85 3.27708C15.0333 3.10903 15.2358 2.97917 15.4573 2.8875C15.6788 2.79583 15.9118 2.75 16.1563 2.75C16.4007 2.75 16.6375 2.79583 16.8667 2.8875C17.0958 2.97917 17.2944 3.11667 17.4625 3.3L18.7229 4.58333C18.9063 4.75139 19.0399 4.95 19.124 5.17917C19.208 5.40833 19.25 5.6375 19.25 5.86667C19.25 6.11111 19.208 6.3441 19.124 6.56562C19.0399 6.78715 18.9063 6.98958 18.7229 7.17292L7.17292 18.7229C7.00486 18.891 6.81007 19.0208 6.58854 19.1125C6.36701 19.2042 6.13403 19.25 5.88958 19.25H3.66667ZM16.1333 7.15L17.4167 5.86667L16.1333 4.58333L14.85 5.86667L16.1333 7.15Z" fill="#533800"/>
</svg>
