<svg width="42" height="42" viewBox="0 0 42 42" fill="none" xmlns="http://www.w3.org/2000/svg">
<g filter="url(#filter0_d_158_2488)">
<circle cx="21" cy="21" r="16.5" fill="#F6F5F3" stroke="#E5E4E2"/>
<path d="M20.5545 27.5762V23.673C20.5545 23.5462 20.597 23.4402 20.6821 23.3551C20.7672 23.27 20.8732 23.2275 21 23.2275C21.1268 23.2275 21.2328 23.27 21.3179 23.3551C21.403 23.4402 21.4455 23.5462 21.4455 23.673V27.5711L23.2085 25.8029C23.2954 25.716 23.3994 25.6697 23.5204 25.6639C23.6416 25.6583 23.7512 25.7046 23.8494 25.8029C23.9477 25.9011 23.9969 26.0078 23.9969 26.1232C23.9969 26.2386 23.9477 26.3454 23.8494 26.4435L21.5039 28.7893C21.426 28.8669 21.3466 28.9215 21.2655 28.953C21.1844 28.9843 21.0959 29 21 29C20.9041 29 20.8156 28.9843 20.7345 28.953C20.6534 28.9215 20.574 28.8669 20.4961 28.7893L18.1455 26.4384C18.0586 26.3517 18.0132 26.2486 18.0092 26.1292C18.0052 26.0098 18.0523 25.9011 18.1506 25.8029C18.2488 25.7046 18.3547 25.6554 18.4685 25.6554C18.5821 25.6554 18.688 25.7046 18.7863 25.8029L20.5545 27.5762ZM14.4289 21.4455L16.1971 23.2085C16.284 23.2954 16.3303 23.3994 16.3361 23.5204C16.3417 23.6416 16.2954 23.7512 16.1971 23.8494C16.0989 23.9477 15.9922 23.9969 15.8768 23.9969C15.7614 23.9969 15.6546 23.9477 15.5565 23.8494L13.2107 21.5039C13.1331 21.426 13.0785 21.3466 13.047 21.2655C13.0157 21.1844 13 21.0959 13 21C13 20.9041 13.0157 20.8156 13.047 20.7345C13.0785 20.6534 13.1331 20.574 13.2107 20.4961L15.5565 18.1506C15.6432 18.0637 15.7463 18.0175 15.8657 18.0118C15.985 18.006 16.0938 18.0523 16.192 18.1506C16.2903 18.2488 16.3394 18.3547 16.3394 18.4685C16.3394 18.5821 16.2903 18.688 16.192 18.7863L14.4238 20.5545H18.327C18.4538 20.5545 18.5598 20.597 18.6449 20.6821C18.73 20.7672 18.7725 20.8732 18.7725 21C18.7725 21.1268 18.73 21.2328 18.6449 21.3179C18.5598 21.403 18.4538 21.4455 18.327 21.4455H14.4289ZM27.5762 21.4455H23.673C23.5462 21.4455 23.4402 21.403 23.3551 21.3179C23.27 21.2328 23.2275 21.1268 23.2275 21C23.2275 20.8732 23.27 20.7672 23.3551 20.6821C23.4402 20.597 23.5462 20.5545 23.673 20.5545H27.5711L25.8029 18.7915C25.716 18.7046 25.6697 18.6006 25.6639 18.4796C25.6583 18.3584 25.7046 18.2488 25.8029 18.1506C25.9011 18.0523 26.0078 18.0031 26.1232 18.0031C26.2386 18.0031 26.3454 18.0523 26.4435 18.1506L28.7893 20.4961C28.8669 20.574 28.9215 20.6534 28.953 20.7345C28.9843 20.8156 29 20.9041 29 21C29 21.0959 28.9843 21.1844 28.953 21.2655C28.9215 21.3466 28.8669 21.426 28.7893 21.5039L26.4384 23.8545C26.3517 23.9414 26.2494 23.9868 26.1317 23.9908C26.0141 23.9948 25.9062 23.9477 25.808 23.8494C25.7097 23.7512 25.6606 23.6453 25.6606 23.5315C25.6606 23.4179 25.7097 23.312 25.808 23.2137L27.5762 21.4455ZM20.5545 14.4238L18.781 16.1971C18.6943 16.284 18.5921 16.3303 18.4745 16.3361C18.3567 16.3417 18.2488 16.2954 18.1506 16.1971C18.0523 16.0989 18.0031 15.9931 18.0031 15.8795C18.0031 15.7657 18.0523 15.6598 18.1506 15.5616L20.4961 13.2107C20.574 13.1331 20.6534 13.0785 20.7345 13.047C20.8156 13.0157 20.9041 13 21 13C21.0959 13 21.1844 13.0157 21.2655 13.047C21.3466 13.0785 21.426 13.1331 21.5039 13.2107L23.8545 15.5616C23.9414 15.6483 23.9876 15.7506 23.9933 15.8683C23.9991 15.9859 23.9528 16.0938 23.8545 16.192C23.7564 16.2903 23.6504 16.3394 23.5367 16.3394C23.4231 16.3394 23.3172 16.2903 23.219 16.192L21.4455 14.4238V18.327C21.4455 18.4538 21.403 18.5598 21.3179 18.6449C21.2328 18.73 21.1268 18.7725 21 18.7725C20.8732 18.7725 20.7672 18.73 20.6821 18.6449C20.597 18.5598 20.5545 18.4538 20.5545 18.327V14.4238Z" fill="#111111"/>
</g>
<defs>
<filter id="filter0_d_158_2488" x="0" y="0" width="42" height="42" filterUnits="userSpaceOnUse" color-interpolation-filters="sRGB">
<feFlood flood-opacity="0" result="BackgroundImageFix"/>
<feColorMatrix in="SourceAlpha" type="matrix" values="0 0 0 0 0 0 0 0 0 0 0 0 0 0 0 0 0 0 127 0" result="hardAlpha"/>
<feOffset/>
<feGaussianBlur stdDeviation="2"/>
<feComposite in2="hardAlpha" operator="out"/>
<feColorMatrix type="matrix" values="0 0 0 0 0 0 0 0 0 0 0 0 0 0 0 0 0 0 0.1 0"/>
<feBlend mode="normal" in2="BackgroundImageFix" result="effect1_dropShadow_158_2488"/>
<feBlend mode="normal" in="SourceGraphic" in2="effect1_dropShadow_158_2488" result="shape"/>
</filter>
</defs>
</svg>
