<svg width="48" height="48" viewBox="0 0 48 48" fill="none" xmlns="http://www.w3.org/2000/svg">
<g filter="url(#filter0_d_241_1749)">
<rect x="4" y="4" width="40" height="40" rx="20" fill="#533800"/>
<rect x="4.5" y="4.5" width="39" height="39" rx="19.5" stroke="#E5E4E2"/>
<path d="M23.0001 19.825L18.1001 24.725C17.9001 24.925 17.6668 25.0209 17.4001 25.0125C17.1334 25.0042 16.9001 24.9 16.7001 24.7C16.5168 24.5 16.4209 24.2667 16.4126 24C16.4043 23.7334 16.5001 23.5 16.7001 23.3L23.3001 16.7C23.4001 16.6 23.5084 16.5292 23.6251 16.4875C23.7418 16.4459 23.8668 16.425 24.0001 16.425C24.1334 16.425 24.2584 16.4459 24.3751 16.4875C24.4918 16.5292 24.6001 16.6 24.7001 16.7L31.3001 23.3C31.4834 23.4834 31.5751 23.7125 31.5751 23.9875C31.5751 24.2625 31.4834 24.5 31.3001 24.7C31.1001 24.9 30.8626 25 30.5876 25C30.3126 25 30.0751 24.9 29.8751 24.7L25.0001 19.825V31C25.0001 31.2834 24.9043 31.5209 24.7126 31.7125C24.5209 31.9042 24.2834 32 24.0001 32C23.7168 32 23.4793 31.9042 23.2876 31.7125C23.0959 31.5209 23.0001 31.2834 23.0001 31V19.825Z" fill="white"/>
</g>
<defs>
<filter id="filter0_d_241_1749" x="0" y="0" width="48" height="48" filterUnits="userSpaceOnUse" color-interpolation-filters="sRGB">
<feFlood flood-opacity="0" result="BackgroundImageFix"/>
<feColorMatrix in="SourceAlpha" type="matrix" values="0 0 0 0 0 0 0 0 0 0 0 0 0 0 0 0 0 0 127 0" result="hardAlpha"/>
<feOffset/>
<feGaussianBlur stdDeviation="2"/>
<feComposite in2="hardAlpha" operator="out"/>
<feColorMatrix type="matrix" values="0 0 0 0 0 0 0 0 0 0 0 0 0 0 0 0 0 0 0.05 0"/>
<feBlend mode="normal" in2="BackgroundImageFix" result="effect1_dropShadow_241_1749"/>
<feBlend mode="normal" in="SourceGraphic" in2="effect1_dropShadow_241_1749" result="shape"/>
</filter>
</defs>
</svg>
