<svg width="48" height="48" viewBox="0 0 48 48" fill="none" xmlns="http://www.w3.org/2000/svg">
<g filter="url(#filter0_d_1011_1802)">
<rect x="4" y="4" width="40" height="40" rx="20" fill="#E5E4E2"/>
<rect x="4.5" y="4.5" width="39" height="39" rx="19.5" stroke="#E5E4E2"/>
<path d="M23.0001 19.8248L18.1001 24.7248C17.9001 24.9248 17.6668 25.0206 17.4001 25.0123C17.1334 25.004 16.9001 24.8998 16.7001 24.6998C16.5168 24.4998 16.4209 24.2665 16.4126 23.9998C16.4043 23.7331 16.5001 23.4998 16.7001 23.2998L23.3001 16.6998C23.4001 16.5998 23.5084 16.529 23.6251 16.4873C23.7418 16.4456 23.8668 16.4248 24.0001 16.4248C24.1334 16.4248 24.2584 16.4456 24.3751 16.4873C24.4918 16.529 24.6001 16.5998 24.7001 16.6998L31.3001 23.2998C31.4834 23.4831 31.5751 23.7123 31.5751 23.9873C31.5751 24.2623 31.4834 24.4998 31.3001 24.6998C31.1001 24.8998 30.8626 24.9998 30.5876 24.9998C30.3126 24.9998 30.0751 24.8998 29.8751 24.6998L25.0001 19.8248V30.9998C25.0001 31.2831 24.9043 31.5206 24.7126 31.7123C24.5209 31.904 24.2834 31.9998 24.0001 31.9998C23.7168 31.9998 23.4793 31.904 23.2876 31.7123C23.0959 31.5206 23.0001 31.2831 23.0001 30.9998V19.8248Z" fill="#533800" fill-opacity="0.5"/>
</g>
<defs>
<filter id="filter0_d_1011_1802" x="0" y="0" width="48" height="48" filterUnits="userSpaceOnUse" color-interpolation-filters="sRGB">
<feFlood flood-opacity="0" result="BackgroundImageFix"/>
<feColorMatrix in="SourceAlpha" type="matrix" values="0 0 0 0 0 0 0 0 0 0 0 0 0 0 0 0 0 0 127 0" result="hardAlpha"/>
<feOffset/>
<feGaussianBlur stdDeviation="2"/>
<feComposite in2="hardAlpha" operator="out"/>
<feColorMatrix type="matrix" values="0 0 0 0 0 0 0 0 0 0 0 0 0 0 0 0 0 0 0.05 0"/>
<feBlend mode="normal" in2="BackgroundImageFix" result="effect1_dropShadow_1011_1802"/>
<feBlend mode="normal" in="SourceGraphic" in2="effect1_dropShadow_1011_1802" result="shape"/>
</filter>
</defs>
</svg>
