<svg width="30" height="30" viewBox="0 0 30 30" fill="none" xmlns="http://www.w3.org/2000/svg">
<circle cx="15" cy="15" r="15" fill="#533800"/>
<mask id="mask0_140_1940" style="mask-type:alpha" maskUnits="userSpaceOnUse" x="5" y="5" width="20" height="20">
<rect x="5" y="5" width="20" height="20" fill="#D9D9D9"/>
</mask>
<g mask="url(#mask0_140_1940)">
<path d="M18.5738 11.0066L10.4359 19.1283C10.3579 19.2063 10.2623 19.2427 10.149 19.2372C10.0358 19.232 9.94017 19.1903 9.86211 19.1122C9.7842 19.0343 9.74524 18.9414 9.74524 18.8335C9.74524 18.7256 9.7842 18.6327 9.86211 18.5547L17.984 10.4168H10.6571C10.5391 10.4168 10.4401 10.3768 10.3602 10.2968C10.2804 10.2168 10.2404 10.1177 10.2404 9.99954C10.2404 9.88134 10.2804 9.78245 10.3602 9.70287C10.4401 9.62329 10.5391 9.5835 10.6571 9.5835H18.734C18.9247 9.5835 19.0845 9.64801 19.2136 9.77704C19.3426 9.90607 19.4071 10.0659 19.4071 10.2566V18.3335C19.4071 18.4516 19.3671 18.5505 19.2871 18.6304C19.2071 18.7102 19.108 18.7502 18.9898 18.7502C18.8716 18.7502 18.7727 18.7102 18.6932 18.6304C18.6136 18.5505 18.5738 18.4516 18.5738 18.3335V11.0066Z" fill="white"/>
</g>
</svg>
