<svg width="25" height="24" viewBox="0 0 25 24" fill="none" xmlns="http://www.w3.org/2000/svg">
<mask id="mask0_127_1671" style="mask-type:alpha" maskUnits="userSpaceOnUse" x="0" y="0" width="25" height="24">
<rect x="0.25" width="24" height="24" fill="#D9D9D9"/>
</mask>
<g mask="url(#mask0_127_1671)">
<path d="M6.75 16.019C7.57817 16.019 8.38392 16.1129 9.16725 16.3007C9.95058 16.4886 10.7282 16.7831 11.5 17.1845V7.35347C10.7975 6.8958 10.0372 6.55255 9.21925 6.32372C8.40125 6.09489 7.57817 5.98047 6.75 5.98047C6.15 5.98047 5.58942 6.02755 5.06825 6.12172C4.54708 6.21605 4.0115 6.37022 3.4615 6.58422C3.38467 6.60989 3.33017 6.6468 3.298 6.69497C3.266 6.74297 3.25 6.7958 3.25 6.85347V16.3112C3.25 16.4011 3.28208 16.4668 3.34625 16.5085C3.41025 16.5501 3.48075 16.5549 3.55775 16.5227C4.03208 16.3612 4.53267 16.2369 5.0595 16.1497C5.5865 16.0626 6.15 16.019 6.75 16.019ZM13 17.1845C13.7718 16.7831 14.5494 16.4886 15.3328 16.3007C16.1161 16.1129 16.9218 16.019 17.75 16.019C18.35 16.019 18.9135 16.0626 19.4405 16.1497C19.9673 16.2369 20.4679 16.3612 20.9423 16.5227C21.0193 16.5549 21.0898 16.5501 21.1538 16.5085C21.2179 16.4668 21.25 16.4011 21.25 16.3112V6.85347C21.25 6.7958 21.234 6.74455 21.202 6.69972C21.1698 6.65489 21.1153 6.61639 21.0385 6.58422C20.4885 6.37022 19.9529 6.21605 19.4318 6.12172C18.9106 6.02755 18.35 5.98047 17.75 5.98047C16.9218 5.98047 16.0987 6.09489 15.2807 6.32372C14.4627 6.55255 13.7025 6.8958 13 7.35347V17.1845ZM12.25 18.965C12.0552 18.965 11.8728 18.9406 11.703 18.892C11.533 18.8433 11.3724 18.7786 11.2213 18.6977C10.5328 18.3081 9.8125 18.0141 9.0605 17.816C8.30867 17.618 7.5385 17.519 6.75 17.519C6.13983 17.519 5.5405 17.5866 4.952 17.7217C4.3635 17.8571 3.79617 18.0561 3.25 18.319C2.89367 18.483 2.55458 18.457 2.23275 18.241C1.91092 18.025 1.75 17.7189 1.75 17.3227V6.46522C1.75 6.24972 1.8055 6.04747 1.9165 5.85847C2.02733 5.6693 2.18725 5.53305 2.39625 5.44972C3.07308 5.12022 3.7785 4.8763 4.5125 4.71797C5.2465 4.55964 5.99233 4.48047 6.75 4.48047C7.723 4.48047 8.67367 4.61347 9.602 4.87947C10.5302 5.14564 11.4128 5.5383 12.25 6.05747C13.0872 5.5383 13.9698 5.14564 14.898 4.87947C15.8263 4.61347 16.777 4.48047 17.75 4.48047C18.5077 4.48047 19.2535 4.55964 19.9875 4.71797C20.7215 4.8763 21.4269 5.12022 22.1038 5.44972C22.3127 5.53305 22.4727 5.6693 22.5835 5.85847C22.6945 6.04747 22.75 6.24972 22.75 6.46522V17.3227C22.75 17.7189 22.5827 18.0218 22.248 18.2315C21.9133 18.441 21.5614 18.4637 21.1923 18.2997C20.6526 18.0432 20.0933 17.849 19.5145 17.717C18.9357 17.585 18.3475 17.519 17.75 17.519C16.9615 17.519 16.1913 17.618 15.4395 17.816C14.6875 18.0141 13.9673 18.3081 13.2788 18.6977C13.1276 18.7786 12.967 18.8433 12.797 18.892C12.6272 18.9406 12.4448 18.965 12.25 18.965Z" fill="#533800"/>
</g>
</svg>
