<svg width="32" height="32" viewBox="0 0 32 32" fill="none" xmlns="http://www.w3.org/2000/svg">
<g filter="url(#filter0_d_307_2200)">
<rect x="4" y="4" width="24" height="24" rx="12" fill="#F6F5F3" shape-rendering="crispEdges"/>
<mask id="mask0_307_2200" style="mask-type:alpha" maskUnits="userSpaceOnUse" x="8" y="8" width="16" height="16">
<rect x="8" y="8" width="16" height="16" fill="#D9D9D9"/>
</mask>
<g mask="url(#mask0_307_2200)">
<path d="M13.0772 21.3331C12.7788 21.3331 12.5247 21.2283 12.3148 21.0185C12.1051 20.8086 12.0002 20.5545 12.0002 20.2561V11.9998H11.6668C11.5719 11.9998 11.4927 11.968 11.429 11.9043C11.3653 11.8406 11.3335 11.7614 11.3335 11.6665C11.3335 11.5716 11.3653 11.4923 11.429 11.4286C11.4927 11.365 11.5719 11.3331 11.6668 11.3331H14.0002C14.0002 11.1956 14.0512 11.0757 14.1533 10.9735C14.2554 10.8714 14.3753 10.8203 14.513 10.8203H17.4873C17.625 10.8203 17.7449 10.8714 17.847 10.9735C17.9491 11.0757 18.0002 11.1956 18.0002 11.3331H20.3335C20.4284 11.3331 20.5077 11.365 20.5713 11.4286C20.635 11.4923 20.6668 11.5716 20.6668 11.6665C20.6668 11.7614 20.635 11.8406 20.5713 11.9043C20.5077 11.968 20.4284 11.9998 20.3335 11.9998H20.0002V20.2561C20.0002 20.5545 19.8953 20.8086 19.6855 21.0185C19.4756 21.2283 19.2215 21.3331 18.9232 21.3331H13.0772ZM16.0002 16.805L17.4977 18.3023C17.56 18.3648 17.6365 18.3981 17.7272 18.4023C17.8177 18.4066 17.8984 18.3733 17.9693 18.3023C18.0403 18.2314 18.0758 18.1528 18.0758 18.0665C18.0758 17.9801 18.0403 17.9015 17.9693 17.8306L16.472 16.3331L17.9693 14.8356C18.0318 14.7733 18.0651 14.6968 18.0693 14.6061C18.0737 14.5156 18.0403 14.4349 17.9693 14.364C17.8984 14.293 17.8198 14.2575 17.7335 14.2575C17.6472 14.2575 17.5686 14.293 17.4977 14.364L16.0002 15.8613L14.5027 14.364C14.4403 14.3015 14.3638 14.2682 14.2732 14.264C14.1826 14.2596 14.1019 14.293 14.031 14.364C13.96 14.4349 13.9245 14.5135 13.9245 14.5998C13.9245 14.6861 13.96 14.7648 14.031 14.8356L15.5283 16.3331L14.031 17.8306C13.9686 17.893 13.9352 17.9695 13.931 18.0601C13.9267 18.1507 13.96 18.2314 14.031 18.3023C14.1019 18.3733 14.1805 18.4088 14.2668 18.4088C14.3532 18.4088 14.4318 18.3733 14.5027 18.3023L16.0002 16.805Z" fill="#1C1B1F"/>
</g>
</g>
<defs>
<filter id="filter0_d_307_2200" x="0" y="0" width="32" height="32" filterUnits="userSpaceOnUse" color-interpolation-filters="sRGB">
<feFlood flood-opacity="0" result="BackgroundImageFix"/>
<feColorMatrix in="SourceAlpha" type="matrix" values="0 0 0 0 0 0 0 0 0 0 0 0 0 0 0 0 0 0 127 0" result="hardAlpha"/>
<feOffset/>
<feGaussianBlur stdDeviation="2"/>
<feComposite in2="hardAlpha" operator="out"/>
<feColorMatrix type="matrix" values="0 0 0 0 0 0 0 0 0 0 0 0 0 0 0 0 0 0 0.25 0"/>
<feBlend mode="normal" in2="BackgroundImageFix" result="effect1_dropShadow_307_2200"/>
<feBlend mode="normal" in="SourceGraphic" in2="effect1_dropShadow_307_2200" result="shape"/>
</filter>
</defs>
</svg>
