<svg width="32" height="32" viewBox="0 0 32 32" fill="none" xmlns="http://www.w3.org/2000/svg">
<g filter="url(#filter0_d_307_2182)">
<rect x="4" y="4" width="24" height="24" rx="12" fill="#F6F5F3" shape-rendering="crispEdges"/>
<mask id="mask0_307_2182" style="mask-type:alpha" maskUnits="userSpaceOnUse" x="8" y="8" width="16" height="16">
<rect x="8" y="8" width="16" height="16" fill="#111111"/>
</mask>
<g mask="url(#mask0_307_2182)">
<path d="M12.718 18.7177C11.966 18.7177 11.325 18.4528 10.795 17.9229C10.265 17.393 10 16.7522 10 16.0004C10 15.2486 10.265 14.6076 10.795 14.0772C11.325 13.5469 11.966 13.2817 12.718 13.2817H14.7437C14.8381 13.2817 14.9173 13.3137 14.9812 13.3777C15.0451 13.4417 15.077 13.521 15.077 13.6156C15.077 13.7101 15.0451 13.7892 14.9812 13.8529C14.9173 13.9166 14.8381 13.9484 14.7437 13.9484H12.7165C12.1534 13.9484 11.6709 14.1493 11.2692 14.5511C10.8675 14.9527 10.6667 15.4356 10.6667 15.9997C10.6667 16.5638 10.8675 17.0467 11.2692 17.4484C11.6709 17.8502 12.1534 18.0511 12.7165 18.0511H14.7437C14.8381 18.0511 14.9173 18.083 14.9812 18.1469C15.0451 18.2109 15.077 18.2902 15.077 18.3847C15.077 18.4794 15.0451 18.5586 14.9812 18.6222C14.9173 18.6859 14.8381 18.7177 14.7437 18.7177H12.718ZM14 16.3331C13.9056 16.3331 13.8264 16.3011 13.7625 16.2371C13.6986 16.1731 13.6667 16.0938 13.6667 15.9992C13.6667 15.9047 13.6986 15.8256 13.7625 15.7619C13.8264 15.6982 13.9056 15.6664 14 15.6664H18C18.0944 15.6664 18.1736 15.6984 18.2375 15.7624C18.3014 15.8264 18.3333 15.9057 18.3333 16.0002C18.3333 16.0948 18.3014 16.1739 18.2375 16.2376C18.1736 16.3012 18.0944 16.3331 18 16.3331H14ZM17.2563 18.7177C17.1619 18.7177 17.0827 18.6857 17.0188 18.6217C16.9549 18.5577 16.923 18.4785 16.923 18.3839C16.923 18.2893 16.9549 18.2102 17.0188 18.1466C17.0827 18.0829 17.1619 18.0511 17.2563 18.0511H19.2835C19.8466 18.0511 20.3291 17.8502 20.7308 17.4484C21.1325 17.0467 21.3333 16.5638 21.3333 15.9997C21.3333 15.4356 21.1325 14.9527 20.7308 14.5511C20.3291 14.1493 19.8466 13.9484 19.2835 13.9484H17.2563C17.1619 13.9484 17.0827 13.9165 17.0188 13.8526C16.9549 13.7886 16.923 13.7093 16.923 13.6147C16.923 13.5201 16.9549 13.4409 17.0188 13.3772C17.0827 13.3136 17.1619 13.2817 17.2563 13.2817H19.282C20.034 13.2817 20.675 13.5467 21.205 14.0766C21.735 14.6065 22 15.2473 22 15.9991C22 16.7508 21.735 17.3919 21.205 17.9222C20.675 18.4526 20.034 18.7177 19.282 18.7177H17.2563Z" fill="#111111"/>
</g>
</g>
<defs>
<filter id="filter0_d_307_2182" x="0" y="0" width="32" height="32" filterUnits="userSpaceOnUse" color-interpolation-filters="sRGB">
<feFlood flood-opacity="0" result="BackgroundImageFix"/>
<feColorMatrix in="SourceAlpha" type="matrix" values="0 0 0 0 0 0 0 0 0 0 0 0 0 0 0 0 0 0 127 0" result="hardAlpha"/>
<feOffset/>
<feGaussianBlur stdDeviation="2"/>
<feComposite in2="hardAlpha" operator="out"/>
<feColorMatrix type="matrix" values="0 0 0 0 0 0 0 0 0 0 0 0 0 0 0 0 0 0 0.25 0"/>
<feBlend mode="normal" in2="BackgroundImageFix" result="effect1_dropShadow_307_2182"/>
<feBlend mode="normal" in="SourceGraphic" in2="effect1_dropShadow_307_2182" result="shape"/>
</filter>
</defs>
</svg>
