<svg width="25" height="24" viewBox="0 0 25 24" fill="none" xmlns="http://www.w3.org/2000/svg">
<mask id="mask0_127_1835" style="mask-type:alpha" maskUnits="userSpaceOnUse" x="0" y="0" width="25" height="24">
<rect x="0.75" width="24" height="24" fill="#D9D9D9"/>
<rect x="1.25" y="0.5" width="23" height="23" stroke="#533800" stroke-opacity="0.3"/>
</mask>
<g mask="url(#mask0_127_1835)">
<path d="M12.7495 2.4126C13.914 2.41262 15.0138 2.60546 16.0493 2.99072L16.4888 3.16748C17.5064 3.60795 18.4104 4.18653 19.1997 4.90381L19.5308 5.21924C20.2873 5.97578 20.9054 6.84629 21.3853 7.83057L21.5825 8.25928C22.0857 9.42149 22.3374 10.6686 22.3374 11.9995C22.3374 13.164 22.1445 14.2638 21.7593 15.2993L21.5825 15.7388C21.1421 16.7564 20.5634 17.6604 19.8462 18.4497L19.5308 18.7808C18.774 19.5375 17.903 20.1553 16.9185 20.6353L16.4897 20.8325C15.3276 21.3356 14.0813 21.5874 12.7505 21.5874C11.586 21.5874 10.4862 21.3945 9.45068 21.0093L9.01025 20.8325C7.9928 20.3921 7.0895 19.8133 6.30029 19.0962L5.96924 18.7808C5.21253 18.0241 4.59469 17.153 4.11475 16.1685L3.91748 15.7397C3.41434 14.5776 3.1626 13.3313 3.1626 12.0005C3.1626 10.836 3.35548 9.73617 3.74072 8.70068L3.91748 8.26025C4.42077 7.09757 5.1046 6.08388 5.96924 5.21924C6.72578 4.46269 7.59627 3.84464 8.58057 3.36475L9.00928 3.16748C10.1715 2.66429 11.4186 2.4126 12.7495 2.4126ZM11.8081 4.15869L11.8071 4.15576L11.8013 4.16553C11.7378 4.26183 11.6918 4.35564 11.6626 4.44678L11.6392 4.53662C11.6158 4.65482 11.604 4.78978 11.604 4.94092C11.604 5.32766 11.723 5.66483 11.9614 5.95166L12.0708 6.07178C12.3821 6.38312 12.7605 6.53847 13.2046 6.53857C13.3472 6.53857 13.4742 6.52296 13.5845 6.49072L13.689 6.45361C13.8175 6.39789 13.9561 6.36966 14.105 6.36963C14.2344 6.36963 14.3478 6.40648 14.4448 6.48096L14.5366 6.56787C14.6521 6.70041 14.7094 6.85502 14.7095 7.03174C14.7095 7.20179 14.667 7.34213 14.5825 7.45264C14.519 7.53554 14.431 7.60297 14.3188 7.65381L14.1978 7.69971C13.8522 7.80735 13.5201 7.86084 13.2017 7.86084C12.5014 7.86084 11.8882 7.64159 11.3618 7.20264L11.1421 7.00146C10.5688 6.42815 10.2817 5.74113 10.2817 4.94092V4.74072C10.2818 4.67978 10.2948 4.59788 10.3208 4.49463L10.3267 4.47314L10.3052 4.47998C8.70434 5.00197 7.39147 5.94096 6.36768 7.29736C5.34373 8.65408 4.83162 10.2218 4.83154 11.9995C4.83154 14.0498 5.51081 15.8193 6.86963 17.3062L7.15088 17.5991C8.69664 19.1448 10.5629 19.9184 12.7495 19.9185C14.7997 19.9185 16.5693 19.2391 18.0562 17.8804L18.3491 17.5991C19.895 16.0532 20.6685 14.1864 20.6685 11.9995C20.6684 9.94951 19.989 8.18061 18.6304 6.69385L18.3491 6.40088C16.8032 4.855 14.9364 4.08154 12.7495 4.08154L12.2729 4.09229C12.1133 4.09967 11.958 4.12084 11.8081 4.15869ZM17.4419 14.271C17.0519 15.0429 16.5164 15.6815 15.8335 16.186L15.5298 16.395C14.695 16.9315 13.768 17.1997 12.7495 17.1997C11.8585 17.1996 11.038 16.9942 10.2876 16.5835L9.97021 16.395C9.14095 15.8619 8.50412 15.1538 8.05811 14.271H17.4419ZM9.98975 9.08057C10.2896 9.08065 10.5487 9.17102 10.7681 9.35205L10.8599 9.43506C11.0978 9.67146 11.2172 9.96063 11.2173 10.3032C11.2173 10.6462 11.0983 10.9363 10.8618 11.1743C10.6254 11.4122 10.3365 11.5317 9.99365 11.5317C9.69361 11.5317 9.43404 11.4406 9.21436 11.2593L9.12256 11.1763C8.88477 10.9399 8.76613 10.6507 8.76611 10.3081C8.76611 10.0081 8.85646 9.74842 9.0376 9.52881L9.12061 9.43701C9.35708 9.19905 9.64702 9.08057 9.98975 9.08057ZM15.5063 9.08057C15.8063 9.08059 16.066 9.17072 16.2856 9.35205L16.3765 9.43506C16.6144 9.67146 16.7338 9.96063 16.7339 10.3032C16.7339 10.6031 16.6434 10.863 16.4624 11.0825L16.3784 11.1743C16.142 11.4122 15.8529 11.5317 15.5103 11.5317C15.2101 11.5317 14.9505 11.4407 14.731 11.2593L14.6401 11.1763C14.4022 10.9398 14.2827 10.6508 14.2827 10.3081C14.2827 9.96524 14.4008 9.67496 14.6372 9.43701C14.8737 9.19905 15.1634 9.08057 15.5063 9.08057Z" fill="#533800" stroke="#533800" stroke-width="0.025"/>
</g>
</svg>
