<svg width="25" height="24" viewBox="0 0 25 24" fill="none" xmlns="http://www.w3.org/2000/svg">
<mask id="mask0_127_1689" style="mask-type:alpha" maskUnits="userSpaceOnUse" x="0" y="0" width="25" height="24">
<rect x="0.75" width="24" height="24" fill="#D9D9D9"/>
<rect x="1.25" y="0.5" width="23" height="23" stroke="#533800" stroke-opacity="0.3"/>
</mask>
<g mask="url(#mask0_127_1689)">
<path d="M15.5106 11.5439C15.1644 11.5439 14.8712 11.4244 14.6311 11.1853C14.3907 10.9464 14.2705 10.654 14.2705 10.308C14.2705 9.96188 14.3899 9.66861 14.6288 9.42823C14.8677 9.18786 15.1602 9.06767 15.5064 9.06767C15.8523 9.06767 16.1455 9.1872 16.3859 9.42626C16.6263 9.66513 16.7464 9.95755 16.7464 10.3035C16.7464 10.6497 16.6269 10.943 16.3879 11.1833C16.149 11.4237 15.8566 11.5439 15.5106 11.5439ZM9.9937 11.5439C9.64772 11.5439 9.35454 11.4244 9.11417 11.1853C8.87379 10.9464 8.7536 10.654 8.7536 10.308C8.7536 9.96188 8.87313 9.66861 9.11219 9.42823C9.35106 9.18786 9.64348 9.06767 9.98946 9.06767C10.3356 9.06767 10.6288 9.1872 10.869 9.42626C11.1094 9.66513 11.2296 9.95755 11.2296 10.3035C11.2296 10.6497 11.1101 10.943 10.8712 11.1833C10.6324 11.4237 10.3399 11.5439 9.9937 11.5439ZM12.75 17.2124C11.7292 17.2124 10.8004 16.9435 9.96348 16.4057C9.12659 15.8678 8.48442 15.1521 8.03699 14.2587H17.4631C17.0156 15.1521 16.3735 15.8678 15.5366 16.4057C14.6997 16.9435 13.7708 17.2124 12.75 17.2124ZM12.7506 21.5999C11.4181 21.5999 10.1698 21.3479 9.00574 20.844C7.84151 20.3401 6.82645 19.6552 5.96057 18.7894C5.09468 17.9235 4.40979 16.9087 3.90588 15.745C3.40198 14.5812 3.15002 13.333 3.15002 12.0005C3.15002 10.6679 3.40198 9.41967 3.90588 8.25562C4.40979 7.09139 5.09468 6.07633 5.96057 5.21044C6.82645 4.34456 7.84122 3.65967 9.00489 3.15576C10.1688 2.65186 11.4169 2.3999 12.7495 2.3999C14.082 2.3999 15.3303 2.65186 16.4943 3.15576C17.6585 3.65967 18.6736 4.34456 19.5395 5.21044C20.4054 6.07633 21.0903 7.0911 21.5942 8.25477C22.0981 9.41863 22.35 10.6668 22.35 11.9993C22.35 13.3319 22.0981 14.5801 21.5942 15.7442C21.0903 16.9084 20.4054 17.9235 19.5395 18.7894C18.6736 19.6552 17.6588 20.3401 16.4952 20.844C15.3313 21.3479 14.0831 21.5999 12.7506 21.5999ZM12.75 19.9058C14.9336 19.9058 16.7971 19.134 18.3406 17.5905C19.8841 16.047 20.6559 14.1834 20.6559 11.9999C20.6559 9.81637 19.8841 7.95284 18.3406 6.40931C16.7971 4.86578 14.9336 4.09402 12.75 4.09402C12.5912 4.09402 12.4324 4.0976 12.2737 4.10475C12.1148 4.11209 11.9608 4.13459 11.8118 4.17223C11.7278 4.29967 11.6743 4.42202 11.6511 4.53929C11.628 4.65656 11.6164 4.79049 11.6164 4.94108C11.6164 5.37986 11.7709 5.75378 12.08 6.06287C12.3891 6.37195 12.7641 6.52649 13.2052 6.52649C13.394 6.52649 13.5536 6.49826 13.684 6.44179C13.8143 6.38531 13.9547 6.35708 14.1053 6.35708C14.2815 6.35708 14.4283 6.42466 14.5458 6.55981C14.6634 6.69477 14.7223 6.85223 14.7223 7.03219C14.7223 7.37703 14.5488 7.60338 14.2019 7.71124C13.8552 7.81929 13.5218 7.87331 13.2018 7.87331C12.3982 7.87331 11.7086 7.5855 11.133 7.00988C10.5574 6.43426 10.2696 5.74466 10.2696 4.94108V4.74117C10.2696 4.67868 10.2826 4.59548 10.3088 4.49157C8.71031 5.0128 7.39991 5.95068 6.3776 7.30522C5.3553 8.65976 4.84414 10.2247 4.84414 11.9999C4.84414 14.1834 5.61591 16.047 7.15944 17.5905C8.70297 19.134 10.5665 19.9058 12.75 19.9058Z" fill="#533800" fill-opacity="0.3"/>
<path d="M12.7496 2.4126C13.9141 2.41262 15.0139 2.60546 16.0494 2.99072L16.4889 3.16748C17.5066 3.60795 18.4105 4.18653 19.1998 4.90381L19.5309 5.21924C20.2874 5.97578 20.9055 6.84629 21.3854 7.83057L21.5826 8.25928C22.0858 9.42149 22.3375 10.6686 22.3375 11.9995C22.3375 13.164 22.1446 14.2638 21.7594 15.2993L21.5826 15.7388C21.1422 16.7564 20.5636 17.6604 19.8463 18.4497L19.5309 18.7808C18.7742 19.5375 17.9032 20.1553 16.9186 20.6353L16.4899 20.8325C15.3277 21.3356 14.0814 21.5874 12.7506 21.5874C11.5861 21.5874 10.4863 21.3945 9.45081 21.0093L9.01038 20.8325C7.99292 20.3921 7.08962 19.8133 6.30042 19.0962L5.96936 18.7808C5.21265 18.0241 4.59481 17.153 4.11487 16.1685L3.9176 15.7397C3.41446 14.5776 3.16272 13.3313 3.16272 12.0005C3.16272 10.836 3.3556 9.73617 3.74084 8.70068L3.9176 8.26025C4.42089 7.09757 5.10472 6.08388 5.96936 5.21924C6.72591 4.46269 7.5964 3.84464 8.58069 3.36475L9.0094 3.16748C10.1716 2.66429 11.4187 2.4126 12.7496 2.4126ZM11.8082 4.15869L11.8073 4.15576L11.8014 4.16553C11.738 4.26183 11.6919 4.35564 11.6627 4.44678L11.6393 4.53662C11.6159 4.65482 11.6041 4.78978 11.6041 4.94092C11.6041 5.32766 11.7232 5.66483 11.9615 5.95166L12.0709 6.07178C12.3823 6.38312 12.7606 6.53847 13.2047 6.53857C13.3473 6.53857 13.4743 6.52296 13.5846 6.49072L13.6891 6.45361C13.8176 6.39789 13.9562 6.36966 14.1051 6.36963C14.2345 6.36963 14.3479 6.40648 14.4449 6.48096L14.5367 6.56787C14.6522 6.70041 14.7095 6.85502 14.7096 7.03174C14.7096 7.20179 14.6672 7.34213 14.5826 7.45264C14.5191 7.53554 14.4311 7.60297 14.319 7.65381L14.1979 7.69971C13.8523 7.80735 13.5202 7.86084 13.2018 7.86084C12.5016 7.86084 11.8884 7.64159 11.3619 7.20264L11.1422 7.00146C10.5689 6.42815 10.2819 5.74113 10.2819 4.94092V4.74072C10.2819 4.67978 10.2949 4.59788 10.3209 4.49463L10.3268 4.47314L10.3053 4.47998C8.70446 5.00197 7.3916 5.94096 6.3678 7.29736C5.34385 8.65408 4.83174 10.2218 4.83167 11.9995C4.83167 14.0498 5.51093 15.8193 6.86975 17.3062L7.151 17.5991C8.69676 19.1448 10.563 19.9184 12.7496 19.9185C14.7999 19.9185 16.5694 19.2391 18.0563 17.8804L18.3492 17.5991C19.8951 16.0532 20.6686 14.1864 20.6686 11.9995C20.6685 9.94951 19.9891 8.18061 18.6305 6.69385L18.3492 6.40088C16.8034 4.855 14.9365 4.08154 12.7496 4.08154L12.2731 4.09229C12.1134 4.09967 11.9581 4.12084 11.8082 4.15869ZM17.442 14.271C17.0521 15.0429 16.5165 15.6815 15.8336 16.186L15.5299 16.395C14.6951 16.9315 13.7681 17.1997 12.7496 17.1997C11.8586 17.1996 11.0381 16.9942 10.2877 16.5835L9.97034 16.395C9.14107 15.8619 8.50424 15.1538 8.05823 14.271H17.442ZM9.98987 9.08057C10.2897 9.08065 10.5488 9.17102 10.7682 9.35205L10.86 9.43506C11.0979 9.67146 11.2173 9.96063 11.2174 10.3032C11.2174 10.6462 11.0984 10.9363 10.8619 11.1743C10.6255 11.4122 10.3366 11.5317 9.99377 11.5317C9.69373 11.5317 9.43416 11.4406 9.21448 11.2593L9.12268 11.1763C8.88489 10.9399 8.76625 10.6507 8.76624 10.3081C8.76624 10.0081 8.85659 9.74842 9.03772 9.52881L9.12073 9.43701C9.3572 9.19905 9.64714 9.08057 9.98987 9.08057ZM15.5065 9.08057C15.8065 9.08059 16.0661 9.17072 16.2858 9.35205L16.3766 9.43506C16.6145 9.67146 16.7339 9.96063 16.734 10.3032C16.734 10.6031 16.6435 10.863 16.4625 11.0825L16.3785 11.1743C16.1421 11.4122 15.853 11.5317 15.5104 11.5317C15.2102 11.5317 14.9506 11.4407 14.7311 11.2593L14.6403 11.1763C14.4023 10.9398 14.2829 10.6508 14.2828 10.3081C14.2828 9.96524 14.4009 9.67496 14.6373 9.43701C14.8738 9.19905 15.1636 9.08057 15.5065 9.08057Z" stroke="#533800" stroke-opacity="0.3" stroke-width="0.025"/>
</g>
</svg>
