<svg width="16" height="16" viewBox="0 0 16 16" fill="none" xmlns="http://www.w3.org/2000/svg">
<mask id="mask0_241_1760" style="mask-type:alpha" maskUnits="userSpaceOnUse" x="0" y="0" width="16" height="16">
<rect width="16" height="16" fill="#D9D9D9"/>
</mask>
<g mask="url(#mask0_241_1760)">
<path d="M12.2834 14.8666C12.0945 14.8666 11.9362 14.8027 11.8084 14.6749C11.6806 14.5471 11.6167 14.3888 11.6167 14.1999C11.6167 14.111 11.6334 14.0221 11.6667 13.9332C11.7 13.8444 11.7445 13.7721 11.8 13.7166C12.2778 13.2388 12.6528 12.6888 12.925 12.0666C13.1973 11.4444 13.3334 10.7666 13.3334 10.0332C13.3334 9.31102 13.1973 8.63602 12.925 8.00824C12.6528 7.38047 12.2778 6.82769 11.8 6.34991C11.7445 6.29436 11.7 6.22213 11.6667 6.13324C11.6334 6.04436 11.6167 5.95547 11.6167 5.86658C11.6167 5.67769 11.6806 5.51936 11.8084 5.39158C11.9362 5.2638 12.0945 5.19991 12.2834 5.19991C12.3723 5.19991 12.4584 5.21936 12.5417 5.25824C12.625 5.29713 12.6945 5.34436 12.75 5.39991C13.35 5.99991 13.8195 6.69713 14.1584 7.49158C14.4973 8.28602 14.6667 9.13324 14.6667 10.0332C14.6667 10.9444 14.4973 11.7944 14.1584 12.5832C13.8195 13.3721 13.35 14.0666 12.75 14.6666C12.6945 14.7221 12.625 14.7694 12.5417 14.8082C12.4584 14.8471 12.3723 14.8666 12.2834 14.8666ZM10.3834 12.9666C10.1945 12.9666 10.0362 12.9027 9.90837 12.7749C9.7806 12.6471 9.71671 12.4888 9.71671 12.2999C9.71671 12.211 9.73615 12.1249 9.77504 12.0416C9.81393 11.9582 9.86115 11.8888 9.91671 11.8332C10.15 11.5999 10.3334 11.3305 10.4667 11.0249C10.6 10.7194 10.6667 10.3888 10.6667 10.0332C10.6667 9.67769 10.5973 9.34713 10.4584 9.04158C10.3195 8.73602 10.1389 8.46658 9.91671 8.23324C9.85004 8.17769 9.80004 8.10824 9.76671 8.02491C9.73337 7.94158 9.71671 7.85547 9.71671 7.76658C9.71671 7.57769 9.7806 7.41936 9.90837 7.29158C10.0362 7.1638 10.1945 7.09991 10.3834 7.09991C10.4723 7.09991 10.5612 7.11658 10.65 7.14991C10.7389 7.18324 10.8112 7.23324 10.8667 7.29991C11.2223 7.65547 11.5 8.06658 11.7 8.53324C11.9 8.99991 12 9.49991 12 10.0332C12 10.5666 11.9 11.0666 11.7 11.5332C11.5 11.9999 11.2223 12.411 10.8667 12.7666C10.8112 12.8332 10.7389 12.8832 10.65 12.9166C10.5612 12.9499 10.4723 12.9666 10.3834 12.9666ZM5.33337 9.99991H4.00004V10.1832C4.00004 10.5721 4.11948 10.9138 4.35837 11.2082C4.59726 11.5027 4.90004 11.6999 5.26671 11.7999L5.46671 11.8499C5.91115 11.961 6.16115 12.2388 6.21671 12.6832C6.27226 13.1277 6.10004 13.461 5.70004 13.6832C5.13337 14.0055 4.53893 14.2388 3.91671 14.3832C3.29449 14.5277 2.6556 14.6166 2.00004 14.6499C1.81115 14.661 1.65282 14.6027 1.52504 14.4749C1.39726 14.3471 1.33337 14.1888 1.33337 13.9999C1.33337 13.811 1.39726 13.6527 1.52504 13.5249C1.65282 13.3971 1.81115 13.3277 2.00004 13.3166C2.40004 13.2944 2.79171 13.2471 3.17504 13.1749C3.55837 13.1027 3.93893 12.9999 4.31671 12.8666C3.8056 12.611 3.40282 12.2416 3.10837 11.7582C2.81393 11.2749 2.66671 10.7499 2.66671 10.1832V9.33324C2.66671 9.14436 2.7306 8.98602 2.85837 8.85824C2.98615 8.73047 3.14449 8.66658 3.33337 8.66658H5.33337V7.33324C5.33337 7.14436 5.39726 6.98602 5.52504 6.85824C5.65282 6.73047 5.81115 6.66658 6.00004 6.66658H7.58337L5.70004 2.89991C5.61115 2.73324 5.59726 2.5638 5.65837 2.39158C5.71949 2.21936 5.83337 2.0888 6.00004 1.99991C6.16671 1.91102 6.33615 1.89713 6.50837 1.95824C6.6806 2.01936 6.81115 2.13324 6.90004 2.29991L8.78337 6.06658C9.0056 6.51102 8.98893 6.94436 8.73337 7.36658C8.47782 7.7888 8.10004 7.99991 7.60004 7.99991H6.66671V8.66658C6.66671 9.03324 6.53615 9.34713 6.27504 9.60824C6.01393 9.86936 5.70004 9.99991 5.33337 9.99991Z" fill="#616161"/>
</g>
</svg>
