<svg width="16" height="16" viewBox="0 0 16 16" fill="none" xmlns="http://www.w3.org/2000/svg">
<mask id="mask0_241_1573" style="mask-type:alpha" maskUnits="userSpaceOnUse" x="0" y="0" width="16" height="16">
<rect width="16" height="16" fill="#D9D9D9"/>
</mask>
<g mask="url(#mask0_241_1573)">
<path d="M12.2833 14.8666C12.0944 14.8666 11.9361 14.8027 11.8083 14.6749C11.6805 14.5471 11.6166 14.3888 11.6166 14.1999C11.6166 14.111 11.6333 14.0221 11.6666 13.9332C11.7 13.8444 11.7444 13.7721 11.8 13.7166C12.2778 13.2388 12.6528 12.6888 12.925 12.0666C13.1972 11.4444 13.3333 10.7666 13.3333 10.0332C13.3333 9.31102 13.1972 8.63602 12.925 8.00824C12.6528 7.38047 12.2778 6.82769 11.8 6.34991C11.7444 6.29436 11.7 6.22213 11.6666 6.13324C11.6333 6.04436 11.6166 5.95547 11.6166 5.86658C11.6166 5.67769 11.6805 5.51936 11.8083 5.39158C11.9361 5.2638 12.0944 5.19991 12.2833 5.19991C12.3722 5.19991 12.4583 5.21936 12.5416 5.25824C12.625 5.29713 12.6944 5.34436 12.75 5.39991C13.35 5.99991 13.8194 6.69713 14.1583 7.49158C14.4972 8.28602 14.6666 9.13324 14.6666 10.0332C14.6666 10.9444 14.4972 11.7944 14.1583 12.5832C13.8194 13.3721 13.35 14.0666 12.75 14.6666C12.6944 14.7221 12.625 14.7694 12.5416 14.8082C12.4583 14.8471 12.3722 14.8666 12.2833 14.8666ZM10.3833 12.9666C10.1944 12.9666 10.0361 12.9027 9.90831 12.7749C9.78053 12.6471 9.71665 12.4888 9.71665 12.2999C9.71665 12.211 9.73609 12.1249 9.77498 12.0416C9.81387 11.9582 9.86109 11.8888 9.91665 11.8332C10.15 11.5999 10.3333 11.3305 10.4666 11.0249C10.6 10.7194 10.6666 10.3888 10.6666 10.0332C10.6666 9.67769 10.5972 9.34713 10.4583 9.04158C10.3194 8.73602 10.1389 8.46658 9.91665 8.23324C9.84998 8.17769 9.79998 8.10824 9.76665 8.02491C9.73331 7.94158 9.71665 7.85547 9.71665 7.76658C9.71665 7.57769 9.78053 7.41936 9.90831 7.29158C10.0361 7.1638 10.1944 7.09991 10.3833 7.09991C10.4722 7.09991 10.5611 7.11658 10.65 7.14991C10.7389 7.18324 10.8111 7.23324 10.8666 7.29991C11.2222 7.65547 11.5 8.06658 11.7 8.53324C11.9 8.99991 12 9.49991 12 10.0332C12 10.5666 11.9 11.0666 11.7 11.5332C11.5 11.9999 11.2222 12.411 10.8666 12.7666C10.8111 12.8332 10.7389 12.8832 10.65 12.9166C10.5611 12.9499 10.4722 12.9666 10.3833 12.9666ZM5.33331 9.99991H3.99998V10.1832C3.99998 10.5721 4.11942 10.9138 4.35831 11.2082C4.5972 11.5027 4.89998 11.6999 5.26665 11.7999L5.46665 11.8499C5.91109 11.961 6.16109 12.2388 6.21665 12.6832C6.2722 13.1277 6.09998 13.461 5.69998 13.6832C5.13331 14.0055 4.53887 14.2388 3.91665 14.3832C3.29442 14.5277 2.65554 14.6166 1.99998 14.6499C1.81109 14.661 1.65276 14.6027 1.52498 14.4749C1.3972 14.3471 1.33331 14.1888 1.33331 13.9999C1.33331 13.811 1.3972 13.6527 1.52498 13.5249C1.65276 13.3971 1.81109 13.3277 1.99998 13.3166C2.39998 13.2944 2.79165 13.2471 3.17498 13.1749C3.55831 13.1027 3.93887 12.9999 4.31665 12.8666C3.80554 12.611 3.40276 12.2416 3.10831 11.7582C2.81387 11.2749 2.66665 10.7499 2.66665 10.1832V9.33324C2.66665 9.14436 2.73054 8.98602 2.85831 8.85824C2.98609 8.73047 3.14442 8.66658 3.33331 8.66658H5.33331V7.33324C5.33331 7.14436 5.3972 6.98602 5.52498 6.85824C5.65276 6.73047 5.81109 6.66658 5.99998 6.66658H7.58331L5.69998 2.89991C5.61109 2.73324 5.5972 2.5638 5.65831 2.39158C5.71942 2.21936 5.83331 2.0888 5.99998 1.99991C6.16665 1.91102 6.33609 1.89713 6.50831 1.95824C6.68053 2.01936 6.81109 2.13324 6.89998 2.29991L8.78331 6.06658C9.00553 6.51102 8.98887 6.94436 8.73331 7.36658C8.47776 7.7888 8.09998 7.99991 7.59998 7.99991H6.66665V8.66658C6.66665 9.03324 6.53609 9.34713 6.27498 9.60824C6.01387 9.86936 5.69998 9.99991 5.33331 9.99991Z" fill="white"/>
</g>
</svg>
