<svg width="32" height="32" viewBox="0 0 32 32" fill="none" xmlns="http://www.w3.org/2000/svg">
<mask id="mask0_299_2340" style="mask-type:alpha" maskUnits="userSpaceOnUse" x="0" y="0" width="32" height="32">
<rect width="32" height="32" fill="#D9D9D9"/>
</mask>
<g mask="url(#mask0_299_2340)">
<path d="M16 16.9436L9.00503 23.9383C8.88036 24.0632 8.72736 24.1299 8.54603 24.1383C8.36492 24.147 8.20347 24.0803 8.06169 23.9383C7.91969 23.7965 7.84869 23.6393 7.84869 23.4666C7.84869 23.294 7.91969 23.1367 8.06169 22.995L15.0564 16L8.06169 9.00497C7.9368 8.8803 7.87014 8.7273 7.86169 8.54597C7.85303 8.36485 7.91969 8.20341 8.06169 8.06163C8.20347 7.91963 8.36069 7.84863 8.53336 7.84863C8.70603 7.84863 8.86325 7.91963 9.00503 8.06163L16 15.0563L22.995 8.06163C23.1197 7.93674 23.2727 7.87008 23.454 7.86163C23.6351 7.85296 23.7966 7.91963 23.9384 8.06163C24.0804 8.20341 24.1514 8.36063 24.1514 8.5333C24.1514 8.70597 24.0804 8.86319 23.9384 9.00497L16.9437 16L23.9384 22.995C24.0632 23.1196 24.1299 23.2726 24.1384 23.454C24.147 23.6351 24.0804 23.7965 23.9384 23.9383C23.7966 24.0803 23.6394 24.1513 23.4667 24.1513C23.294 24.1513 23.1368 24.0803 22.995 23.9383L16 16.9436Z" fill="white"/>
</g>
</svg>
