<svg width="32" height="32" viewBox="0 0 32 32" fill="none" xmlns="http://www.w3.org/2000/svg">
<mask id="mask0_140_1702" style="mask-type:alpha" maskUnits="userSpaceOnUse" x="0" y="0" width="32" height="32">
<rect width="32" height="32" fill="#D9D9D9"/>
</mask>
<g mask="url(#mask0_140_1702)">
<path d="M16 16.9436L9.005 23.9383C8.88033 24.0632 8.72733 24.1299 8.546 24.1383C8.36489 24.147 8.20344 24.0803 8.06166 23.9383C7.91966 23.7965 7.84866 23.6393 7.84866 23.4666C7.84866 23.294 7.91966 23.1367 8.06166 22.995L15.0563 16L8.06166 9.00497C7.93677 8.8803 7.87011 8.7273 7.86166 8.54597C7.853 8.36485 7.91966 8.20341 8.06166 8.06163C8.20344 7.91963 8.36066 7.84863 8.53333 7.84863C8.706 7.84863 8.86322 7.91963 9.005 8.06163L16 15.0563L22.995 8.06163C23.1197 7.93674 23.2727 7.87008 23.454 7.86163C23.6351 7.85296 23.7966 7.91963 23.9383 8.06163C24.0803 8.20341 24.1513 8.36063 24.1513 8.5333C24.1513 8.70597 24.0803 8.86319 23.9383 9.00497L16.9437 16L23.9383 22.995C24.0632 23.1196 24.1299 23.2726 24.1383 23.454C24.147 23.6351 24.0803 23.7965 23.9383 23.9383C23.7966 24.0803 23.6393 24.1513 23.4667 24.1513C23.294 24.1513 23.1368 24.0803 22.995 23.9383L16 16.9436Z" fill="#616161"/>
</g>
</svg>
