<svg width="153" height="222" viewBox="0 0 153 222" fill="none" xmlns="http://www.w3.org/2000/svg">
<g filter="url(#filter0_d_307_1774)">
<path d="M137 218C136.448 218 136 217.552 136 217V212.117C136 211.565 136.448 211.117 137 211.117H141.117C141.669 211.117 142.117 210.669 142.117 210.117V206C142.117 205.448 142.565 205 143.117 205H148C148.552 205 149 205.448 149 206V217C149 217.552 148.552 218 148 218H137Z" fill="#533800"/>
</g>
<g filter="url(#filter1_d_307_1774)">
<path d="M16 218C16.5523 218 17 217.552 17 217V212.117C17 211.565 16.5523 211.117 16 211.117H11.8828C11.3305 211.117 10.8828 210.669 10.8828 210.117V206C10.8828 205.448 10.4351 205 9.88281 205H5C4.44772 205 4 205.448 4 206V217C4 217.552 4.44772 218 5 218H16Z" fill="#533800"/>
</g>
<g filter="url(#filter2_d_307_1774)">
<path d="M137 4C136.448 4 136 4.44772 136 5V9.88281C136 10.4351 136.448 10.8828 137 10.8828H141.117C141.669 10.8828 142.117 11.3305 142.117 11.8828V16C142.117 16.5523 142.565 17 143.117 17H148C148.552 17 149 16.5523 149 16V5C149 4.44772 148.552 4 148 4H137Z" fill="#533800"/>
</g>
<g filter="url(#filter3_d_307_1774)">
<path d="M16 4C16.5523 4 17 4.44772 17 5V9.88184C17 10.4341 16.5523 10.8818 16 10.8818H11.8828C11.3305 10.8818 10.8828 11.3296 10.8828 11.8818V16C10.8828 16.5523 10.4351 17 9.88281 17H5C4.44772 17 4 16.5523 4 16V5C4 4.44772 4.44772 4 5 4H16Z" fill="#533800"/>
</g>
<g filter="url(#filter4_d_307_1774)">
<rect x="70" y="11" width="7" height="13" rx="1" transform="rotate(-90 70 11)" fill="#533800"/>
</g>
<g filter="url(#filter5_d_307_1774)">
<rect x="70" y="218" width="7" height="13" rx="1" transform="rotate(-90 70 218)" fill="#533800"/>
</g>
<g filter="url(#filter6_d_307_1774)">
<rect x="142" y="104" width="7" height="13" rx="1" fill="#533800"/>
</g>
<g filter="url(#filter7_d_307_1774)">
<rect x="5" y="104" width="7" height="13" rx="1" fill="#533800"/>
</g>
<defs>
<filter id="filter0_d_307_1774" x="132" y="201" width="21" height="21" filterUnits="userSpaceOnUse" color-interpolation-filters="sRGB">
<feFlood flood-opacity="0" result="BackgroundImageFix"/>
<feColorMatrix in="SourceAlpha" type="matrix" values="0 0 0 0 0 0 0 0 0 0 0 0 0 0 0 0 0 0 127 0" result="hardAlpha"/>
<feOffset/>
<feGaussianBlur stdDeviation="2"/>
<feComposite in2="hardAlpha" operator="out"/>
<feColorMatrix type="matrix" values="0 0 0 0 0 0 0 0 0 0 0 0 0 0 0 0 0 0 0.25 0"/>
<feBlend mode="normal" in2="BackgroundImageFix" result="effect1_dropShadow_307_1774"/>
<feBlend mode="normal" in="SourceGraphic" in2="effect1_dropShadow_307_1774" result="shape"/>
</filter>
<filter id="filter1_d_307_1774" x="0" y="201" width="21" height="21" filterUnits="userSpaceOnUse" color-interpolation-filters="sRGB">
<feFlood flood-opacity="0" result="BackgroundImageFix"/>
<feColorMatrix in="SourceAlpha" type="matrix" values="0 0 0 0 0 0 0 0 0 0 0 0 0 0 0 0 0 0 127 0" result="hardAlpha"/>
<feOffset/>
<feGaussianBlur stdDeviation="2"/>
<feComposite in2="hardAlpha" operator="out"/>
<feColorMatrix type="matrix" values="0 0 0 0 0 0 0 0 0 0 0 0 0 0 0 0 0 0 0.25 0"/>
<feBlend mode="normal" in2="BackgroundImageFix" result="effect1_dropShadow_307_1774"/>
<feBlend mode="normal" in="SourceGraphic" in2="effect1_dropShadow_307_1774" result="shape"/>
</filter>
<filter id="filter2_d_307_1774" x="132" y="0" width="21" height="21" filterUnits="userSpaceOnUse" color-interpolation-filters="sRGB">
<feFlood flood-opacity="0" result="BackgroundImageFix"/>
<feColorMatrix in="SourceAlpha" type="matrix" values="0 0 0 0 0 0 0 0 0 0 0 0 0 0 0 0 0 0 127 0" result="hardAlpha"/>
<feOffset/>
<feGaussianBlur stdDeviation="2"/>
<feComposite in2="hardAlpha" operator="out"/>
<feColorMatrix type="matrix" values="0 0 0 0 0 0 0 0 0 0 0 0 0 0 0 0 0 0 0.25 0"/>
<feBlend mode="normal" in2="BackgroundImageFix" result="effect1_dropShadow_307_1774"/>
<feBlend mode="normal" in="SourceGraphic" in2="effect1_dropShadow_307_1774" result="shape"/>
</filter>
<filter id="filter3_d_307_1774" x="0" y="0" width="21" height="21" filterUnits="userSpaceOnUse" color-interpolation-filters="sRGB">
<feFlood flood-opacity="0" result="BackgroundImageFix"/>
<feColorMatrix in="SourceAlpha" type="matrix" values="0 0 0 0 0 0 0 0 0 0 0 0 0 0 0 0 0 0 127 0" result="hardAlpha"/>
<feOffset/>
<feGaussianBlur stdDeviation="2"/>
<feComposite in2="hardAlpha" operator="out"/>
<feColorMatrix type="matrix" values="0 0 0 0 0 0 0 0 0 0 0 0 0 0 0 0 0 0 0.25 0"/>
<feBlend mode="normal" in2="BackgroundImageFix" result="effect1_dropShadow_307_1774"/>
<feBlend mode="normal" in="SourceGraphic" in2="effect1_dropShadow_307_1774" result="shape"/>
</filter>
<filter id="filter4_d_307_1774" x="66" y="0" width="21" height="15" filterUnits="userSpaceOnUse" color-interpolation-filters="sRGB">
<feFlood flood-opacity="0" result="BackgroundImageFix"/>
<feColorMatrix in="SourceAlpha" type="matrix" values="0 0 0 0 0 0 0 0 0 0 0 0 0 0 0 0 0 0 127 0" result="hardAlpha"/>
<feOffset/>
<feGaussianBlur stdDeviation="2"/>
<feComposite in2="hardAlpha" operator="out"/>
<feColorMatrix type="matrix" values="0 0 0 0 0 0 0 0 0 0 0 0 0 0 0 0 0 0 0.25 0"/>
<feBlend mode="normal" in2="BackgroundImageFix" result="effect1_dropShadow_307_1774"/>
<feBlend mode="normal" in="SourceGraphic" in2="effect1_dropShadow_307_1774" result="shape"/>
</filter>
<filter id="filter5_d_307_1774" x="66" y="207" width="21" height="15" filterUnits="userSpaceOnUse" color-interpolation-filters="sRGB">
<feFlood flood-opacity="0" result="BackgroundImageFix"/>
<feColorMatrix in="SourceAlpha" type="matrix" values="0 0 0 0 0 0 0 0 0 0 0 0 0 0 0 0 0 0 127 0" result="hardAlpha"/>
<feOffset/>
<feGaussianBlur stdDeviation="2"/>
<feComposite in2="hardAlpha" operator="out"/>
<feColorMatrix type="matrix" values="0 0 0 0 0 0 0 0 0 0 0 0 0 0 0 0 0 0 0.25 0"/>
<feBlend mode="normal" in2="BackgroundImageFix" result="effect1_dropShadow_307_1774"/>
<feBlend mode="normal" in="SourceGraphic" in2="effect1_dropShadow_307_1774" result="shape"/>
</filter>
<filter id="filter6_d_307_1774" x="138" y="100" width="15" height="21" filterUnits="userSpaceOnUse" color-interpolation-filters="sRGB">
<feFlood flood-opacity="0" result="BackgroundImageFix"/>
<feColorMatrix in="SourceAlpha" type="matrix" values="0 0 0 0 0 0 0 0 0 0 0 0 0 0 0 0 0 0 127 0" result="hardAlpha"/>
<feOffset/>
<feGaussianBlur stdDeviation="2"/>
<feComposite in2="hardAlpha" operator="out"/>
<feColorMatrix type="matrix" values="0 0 0 0 0 0 0 0 0 0 0 0 0 0 0 0 0 0 0.25 0"/>
<feBlend mode="normal" in2="BackgroundImageFix" result="effect1_dropShadow_307_1774"/>
<feBlend mode="normal" in="SourceGraphic" in2="effect1_dropShadow_307_1774" result="shape"/>
</filter>
<filter id="filter7_d_307_1774" x="1" y="100" width="15" height="21" filterUnits="userSpaceOnUse" color-interpolation-filters="sRGB">
<feFlood flood-opacity="0" result="BackgroundImageFix"/>
<feColorMatrix in="SourceAlpha" type="matrix" values="0 0 0 0 0 0 0 0 0 0 0 0 0 0 0 0 0 0 127 0" result="hardAlpha"/>
<feOffset/>
<feGaussianBlur stdDeviation="2"/>
<feComposite in2="hardAlpha" operator="out"/>
<feColorMatrix type="matrix" values="0 0 0 0 0 0 0 0 0 0 0 0 0 0 0 0 0 0 0.25 0"/>
<feBlend mode="normal" in2="BackgroundImageFix" result="effect1_dropShadow_307_1774"/>
<feBlend mode="normal" in="SourceGraphic" in2="effect1_dropShadow_307_1774" result="shape"/>
</filter>
</defs>
</svg>
