<svg width="21" height="20" viewBox="0 0 21 20" fill="none" xmlns="http://www.w3.org/2000/svg">
<mask id="mask0_81_1711" style="mask-type:alpha" maskUnits="userSpaceOnUse" x="0" y="0" width="21" height="20">
<rect x="0.5" width="20" height="20" fill="#D9D9D9"/>
</mask>
<g mask="url(#mask0_81_1711)">
<path d="M6.33333 18.3332C6.09722 18.3332 5.89931 18.2533 5.73958 18.0936C5.57986 17.9339 5.5 17.7359 5.5 17.4998V14.7498C4.70833 14.0276 4.09375 13.1839 3.65625 12.2186C3.21875 11.2533 3 10.2359 3 9.1665C3 7.08317 3.72917 5.31234 5.1875 3.854C6.64583 2.39567 8.41667 1.6665 10.5 1.6665C12.2361 1.6665 13.7743 2.17692 15.1146 3.19775C16.4549 4.21859 17.3264 5.54845 17.7292 7.18734L18.8125 11.4582C18.8819 11.7221 18.8333 11.9616 18.6667 12.1769C18.5 12.3922 18.2778 12.4998 18 12.4998H16.3333V14.9998C16.3333 15.4582 16.1701 15.8505 15.8438 16.1769C15.5174 16.5033 15.125 16.6665 14.6667 16.6665H13V17.4998C13 17.7359 12.9201 17.9339 12.7604 18.0936C12.6007 18.2533 12.4028 18.3332 12.1667 18.3332H6.33333ZM10.5 13.3332C10.7361 13.3332 10.934 13.2533 11.0938 13.0936C11.2535 12.9339 11.3333 12.7359 11.3333 12.4998C11.3333 12.2637 11.2535 12.0658 11.0938 11.9061C10.934 11.7464 10.7361 11.6665 10.5 11.6665C10.2639 11.6665 10.066 11.7464 9.90625 11.9061C9.74653 12.0658 9.66667 12.2637 9.66667 12.4998C9.66667 12.7359 9.74653 12.9339 9.90625 13.0936C10.066 13.2533 10.2639 13.3332 10.5 13.3332ZM10.5208 10.6665C10.6736 10.6665 10.816 10.6144 10.9479 10.5103C11.0799 10.4061 11.1667 10.2637 11.2083 10.0832C11.25 9.9165 11.316 9.75331 11.4062 9.59359C11.4965 9.43386 11.6389 9.24984 11.8333 9.0415C12.2778 8.55539 12.5694 8.18734 12.7083 7.93734C12.8472 7.68734 12.9167 7.40262 12.9167 7.08317C12.9167 6.49984 12.691 6.00678 12.2396 5.604C11.7882 5.20123 11.2292 4.99984 10.5625 4.99984C10.1181 4.99984 9.69792 5.10748 9.30208 5.32275C8.90625 5.53803 8.59028 5.83317 8.35417 6.20817C8.27083 6.34706 8.26736 6.49289 8.34375 6.64567C8.42014 6.79845 8.53472 6.90956 8.6875 6.979C8.84028 7.04845 8.98958 7.05886 9.13542 7.01025C9.28125 6.96164 9.40972 6.86095 9.52083 6.70817C9.65972 6.5415 9.81944 6.41303 10 6.32275C10.1806 6.23248 10.3681 6.18734 10.5625 6.18734C10.8681 6.18734 11.1215 6.27067 11.3229 6.43734C11.5243 6.604 11.625 6.81928 11.625 7.08317C11.625 7.30539 11.566 7.5172 11.4479 7.71859C11.3299 7.91998 11.0972 8.20123 10.75 8.56234C10.4861 8.84012 10.2951 9.08664 10.1771 9.30192C10.059 9.5172 9.97917 9.76373 9.9375 10.0415C9.90972 10.2082 9.95486 10.354 10.0729 10.479C10.191 10.604 10.3403 10.6665 10.5208 10.6665Z" fill="#111111"/>
</g>
</svg>
