<svg width="24" height="24" viewBox="0 0 24 24" fill="none" xmlns="http://www.w3.org/2000/svg">
<mask id="mask0_121_1590" style="mask-type:alpha" maskUnits="userSpaceOnUse" x="0" y="0" width="24" height="24">
<rect width="24" height="24" transform="matrix(-1 0 0 1 24 0)" fill="#D9D9D9"/>
</mask>
<g mask="url(#mask0_121_1590)">
<path d="M17.675 12.8502C17.825 12.7502 17.9375 12.6252 18.0125 12.4752C18.0875 12.3252 18.125 12.1669 18.125 12.0002C18.125 11.8335 18.0875 11.6752 18.0125 11.5252C17.9375 11.3752 17.825 11.2502 17.675 11.1502L9.525 5.9752C9.44167 5.9252 9.35417 5.8877 9.2625 5.8627C9.17083 5.8377 9.08333 5.8252 9 5.8252C8.73333 5.8252 8.5 5.92103 8.3 6.1127C8.1 6.30436 8 6.54186 8 6.8252V17.1752C8 17.4585 8.1 17.696 8.3 17.8877C8.5 18.0794 8.73333 18.1752 9 18.1752C9.08333 18.1752 9.17083 18.1627 9.2625 18.1377C9.35417 18.1127 9.44167 18.0752 9.525 18.0252L17.675 12.8502Z" fill="#111111"/>
</g>
</svg>
