<svg width="16" height="16" viewBox="0 0 16 16" fill="none" xmlns="http://www.w3.org/2000/svg">
<mask id="mask0_241_442" style="mask-type:alpha" maskUnits="userSpaceOnUse" x="0" y="0" width="16" height="16">
<rect width="16" height="16" fill="#D9D9D9"/>
</mask>
<g mask="url(#mask0_241_442)">
<path d="M8.00009 9.3335C7.44454 9.3335 6.97231 9.13905 6.58342 8.75016C6.19454 8.36127 6.00009 7.88905 6.00009 7.3335V3.3335C6.00009 2.77794 6.19454 2.30572 6.58342 1.91683C6.97231 1.52794 7.44454 1.3335 8.00009 1.3335C8.55565 1.3335 9.02787 1.52794 9.41676 1.91683C9.80565 2.30572 10.0001 2.77794 10.0001 3.3335V7.3335C10.0001 7.88905 9.80565 8.36127 9.41676 8.75016C9.02787 9.13905 8.55565 9.3335 8.00009 9.3335ZM7.33342 13.3335V11.9502C6.3112 11.8057 5.4362 11.3724 4.70842 10.6502C3.98065 9.92794 3.53898 9.05016 3.38342 8.01683C3.3612 7.82794 3.4112 7.66683 3.53342 7.5335C3.65565 7.40016 3.8112 7.3335 4.00009 7.3335C4.18898 7.3335 4.34731 7.39739 4.47509 7.52516C4.60287 7.65294 4.68898 7.81127 4.73342 8.00016C4.88898 8.77794 5.27509 9.41683 5.89176 9.91683C6.50842 10.4168 7.2112 10.6668 8.00009 10.6668C8.80009 10.6668 9.50565 10.4141 10.1168 9.9085C10.7279 9.40294 11.1112 8.76683 11.2668 8.00016C11.3112 7.81127 11.3973 7.65294 11.5251 7.52516C11.6529 7.39739 11.8112 7.3335 12.0001 7.3335C12.189 7.3335 12.3445 7.40016 12.4668 7.5335C12.589 7.66683 12.639 7.82794 12.6168 8.01683C12.4612 9.02794 12.0223 9.90016 11.3001 10.6335C10.5779 11.3668 9.70009 11.8057 8.66676 11.9502V13.3335C8.66676 13.5224 8.60287 13.6807 8.47509 13.8085C8.34731 13.9363 8.18898 14.0002 8.00009 14.0002C7.8112 14.0002 7.65287 13.9363 7.52509 13.8085C7.39731 13.6807 7.33342 13.5224 7.33342 13.3335Z" fill="#616161"/>
</g>
</svg>
