<svg width="16" height="16" viewBox="0 0 16 16"  xmlns="http://www.w3.org/2000/svg">
<mask id="mask0_241_1652" style="mask-type:alpha" maskUnits="userSpaceOnUse" x="0" y="0" width="16" height="16">
<rect width="16" height="16"/>
</mask>
<g mask="url(#mask0_241_1652)">
<path d="M8.00003 9.3335C7.44447 9.3335 6.97225 9.13905 6.58336 8.75016C6.19447 8.36127 6.00003 7.88905 6.00003 7.3335V3.3335C6.00003 2.77794 6.19447 2.30572 6.58336 1.91683C6.97225 1.52794 7.44447 1.3335 8.00003 1.3335C8.55559 1.3335 9.02781 1.52794 9.4167 1.91683C9.80559 2.30572 10 2.77794 10 3.3335V7.3335C10 7.88905 9.80559 8.36127 9.4167 8.75016C9.02781 9.13905 8.55559 9.3335 8.00003 9.3335ZM7.33336 13.3335V11.9502C6.31114 11.8057 5.43614 11.3724 4.70836 10.6502C3.98059 9.92794 3.53892 9.05016 3.38336 8.01683C3.36114 7.82794 3.41114 7.66683 3.53336 7.5335C3.65559 7.40016 3.81114 7.3335 4.00003 7.3335C4.18892 7.3335 4.34725 7.39739 4.47503 7.52516C4.60281 7.65294 4.68892 7.81127 4.73336 8.00016C4.88892 8.77794 5.27503 9.41683 5.8917 9.91683C6.50836 10.4168 7.21114 10.6668 8.00003 10.6668C8.80003 10.6668 9.50559 10.4141 10.1167 9.9085C10.7278 9.40294 11.1111 8.76683 11.2667 8.00016C11.3111 7.81127 11.3973 7.65294 11.525 7.52516C11.6528 7.39739 11.8111 7.3335 12 7.3335C12.1889 7.3335 12.3445 7.40016 12.4667 7.5335C12.5889 7.66683 12.6389 7.82794 12.6167 8.01683C12.4611 9.02794 12.0223 9.90016 11.3 10.6335C10.5778 11.3668 9.70003 11.8057 8.6667 11.9502V13.3335C8.6667 13.5224 8.60281 13.6807 8.47503 13.8085C8.34725 13.9363 8.18892 14.0002 8.00003 14.0002C7.81114 14.0002 7.65281 13.9363 7.52503 13.8085C7.39725 13.6807 7.33336 13.5224 7.33336 13.3335Z"/>
</g>
</svg>
