<svg width="16" height="16" viewBox="0 0 16 16" fill="none" xmlns="http://www.w3.org/2000/svg">
<mask id="mask0_241_405" style="mask-type:alpha" maskUnits="userSpaceOnUse" x="0" y="0" width="16" height="16">
<rect width="16" height="16" fill="#D9D9D9"/>
</mask>
<g mask="url(#mask0_241_405)">
<path d="M2.18359 11.8001L4.93359 4.4668H6.25026L9.00026 11.8001H7.73359L7.08359 9.93346H4.11693L3.45026 11.8001H2.18359ZM4.50026 8.8668H6.68359L5.61693 5.83346H5.55026L4.50026 8.8668ZM11.0836 11.9668C10.5169 11.9668 10.0669 11.814 9.73359 11.5085C9.40026 11.2029 9.23359 10.8001 9.23359 10.3001C9.23359 9.81124 9.42526 9.40846 9.80859 9.0918C10.1919 8.77513 10.6836 8.6168 11.2836 8.6168C11.5392 8.6168 11.7891 8.63902 12.0336 8.68346C12.278 8.72791 12.4891 8.78902 12.6669 8.8668V8.6668C12.6669 8.34457 12.553 8.08346 12.3253 7.88346C12.0975 7.68346 11.7947 7.58346 11.4169 7.58346C11.1614 7.58346 10.928 7.63624 10.7169 7.7418C10.5058 7.84735 10.3225 8.00013 10.1669 8.20013L9.38359 7.6168C9.65026 7.29457 9.95304 7.05569 10.2919 6.90013C10.6308 6.74457 11.0114 6.6668 11.4336 6.6668C12.2003 6.6668 12.7725 6.84735 13.1503 7.20846C13.528 7.56957 13.7169 8.11124 13.7169 8.83346V11.8001H12.6669V11.1835H12.6003C12.4447 11.439 12.2336 11.6335 11.9669 11.7668C11.7003 11.9001 11.4058 11.9668 11.0836 11.9668ZM11.2836 11.0668C11.6725 11.0668 12.003 10.9335 12.2753 10.6668C12.5475 10.4001 12.6836 10.089 12.6836 9.73346C12.528 9.64457 12.3419 9.57513 12.1253 9.52513C11.9086 9.47513 11.6947 9.45013 11.4836 9.45013C11.128 9.45013 10.8503 9.52791 10.6503 9.68346C10.4503 9.83902 10.3503 10.0446 10.3503 10.3001C10.3503 10.5224 10.4391 10.7057 10.6169 10.8501C10.7947 10.9946 11.0169 11.0668 11.2836 11.0668Z" fill="white"/>
</g>
</svg>
