<svg width="40" height="40" viewBox="0 0 40 40" fill="none" xmlns="http://www.w3.org/2000/svg">
<mask id="mask0_91_1617" style="mask-type:alpha" maskUnits="userSpaceOnUse" x="0" y="0" width="40" height="40">
<rect width="40" height="40" fill="#D9D9D9"/>
</mask>
<g mask="url(#mask0_91_1617)">
<path d="M15.9162 25.25L30.0412 11.125C30.3745 10.7917 30.7634 10.625 31.2078 10.625C31.6523 10.625 32.0412 10.7917 32.3745 11.125C32.7078 11.4583 32.8745 11.8542 32.8745 12.3125C32.8745 12.7708 32.7078 13.1667 32.3745 13.5L17.0828 28.8333C16.7495 29.1667 16.3606 29.3333 15.9162 29.3333C15.4717 29.3333 15.0828 29.1667 14.7495 28.8333L7.58284 21.6667C7.24951 21.3333 7.08979 20.9375 7.10368 20.4792C7.11757 20.0208 7.29118 19.625 7.62451 19.2917C7.95784 18.9583 8.35368 18.7917 8.81201 18.7917C9.27034 18.7917 9.66618 18.9583 9.99951 19.2917L15.9162 25.25Z" fill="white"/>
</g>
</svg>
