<svg width="24" height="24" viewBox="0 0 24 24" fill="none" xmlns="http://www.w3.org/2000/svg">
<path d="M21.7443 11.8134C21.7443 11.0409 21.6812 10.4772 21.5446 9.89258H12.6648V13.3792H17.8771C17.772 14.2457 17.2045 15.5506 15.9435 16.4274L15.9258 16.5442L18.7334 18.7048L18.928 18.7241C20.7144 17.0851 21.7443 14.6737 21.7443 11.8134Z" fill="#4285F4"/>
<path d="M12.6648 20.9999C15.2184 20.9999 17.3621 20.1648 18.928 18.7242L15.9435 16.4276C15.1448 16.9808 14.0729 17.3671 12.6648 17.3671C10.1638 17.3671 8.04103 15.7282 7.28433 13.4629L7.17342 13.4722L4.254 15.7167L4.21582 15.8221C5.77109 18.8912 8.96573 20.9999 12.6648 20.9999Z" fill="#34A853"/>
<path d="M7.28386 13.4631C7.0842 12.8785 6.96865 12.2521 6.96865 11.6049C6.96865 10.9577 7.0842 10.3314 7.27336 9.74677L7.26807 9.62227L4.31207 7.3418L4.21535 7.3875C3.57435 8.66109 3.20654 10.0913 3.20654 11.6049C3.20654 13.1186 3.57435 14.5487 4.21535 15.8223L7.28386 13.4631Z" fill="#FBBC05"/>
<path d="M12.6648 5.84227C14.4407 5.84227 15.6387 6.60432 16.3218 7.24115L18.991 4.65223C17.3517 3.13856 15.2184 2.20947 12.6648 2.20947C8.96573 2.20947 5.77109 4.31816 4.21582 7.38725L7.27383 9.74652C8.04103 7.48123 10.1638 5.84227 12.6648 5.84227Z" fill="#EB4335"/>
</svg>
