<svg width="24" height="24" viewBox="0 0 24 24" fill="none" xmlns="http://www.w3.org/2000/svg">
<mask id="mask0_155_2015" style="mask-type:alpha" maskUnits="userSpaceOnUse" x="0" y="0" width="24" height="24">
<rect width="24" height="24" fill="#D9D9D9"/>
</mask>
<g mask="url(#mask0_155_2015)">
<path d="M14.623 10.9885L10.5308 6.89625C10.7256 6.77058 10.9471 6.67308 11.1953 6.60375C11.4433 6.53458 11.7243 6.5 12.0385 6.5C12.868 6.5 13.5689 6.78942 14.1413 7.36825C14.7138 7.94708 15 8.65767 15 9.5C15 9.77567 14.9622 10.0536 14.8865 10.3337C14.8108 10.6137 14.723 10.832 14.623 10.9885ZM6.19625 17.4845C7.08458 16.8473 7.99608 16.3573 8.93075 16.0145C9.86542 15.6715 10.8885 15.5 12 15.5C12.7872 15.5 13.5042 15.5958 14.151 15.7875C14.7978 15.9792 15.3289 16.1769 15.7443 16.3807L11.852 12.4885C11.0558 12.427 10.3978 12.1395 9.878 11.626C9.358 11.1125 9.07367 10.4577 9.025 9.6615L6.0405 6.677C5.43017 7.36033 4.9375 8.1465 4.5625 9.0355C4.1875 9.92467 4 10.9128 4 12C4 13.1115 4.19775 14.1198 4.59325 15.025C4.98875 15.9302 5.52308 16.75 6.19625 17.4845ZM18.0307 17.2462C18.5897 16.5629 19.0577 15.7895 19.4345 14.926C19.8115 14.0625 20 13.0872 20 12C20 9.78333 19.2208 7.89583 17.6625 6.3375C16.1042 4.77917 14.2167 4 12 4C10.977 4 10.0209 4.17567 9.13175 4.527C8.24258 4.87817 7.44992 5.35892 6.75375 5.96925L18.0307 17.2462ZM12 21C10.7487 21 9.57558 20.7663 8.48075 20.299C7.38592 19.8317 6.43242 19.1919 5.62025 18.3798C4.80808 17.5676 4.16833 16.6141 3.701 15.5192C3.23367 14.4244 3 13.2513 3 12C3 10.7448 3.23367 9.57083 3.701 8.478C4.16833 7.385 4.80808 6.43242 5.62025 5.62025C6.43242 4.80808 7.38592 4.16833 8.48075 3.701C9.57558 3.23367 10.7487 3 12 3C13.2552 3 14.4292 3.23367 15.522 3.701C16.615 4.16833 17.5676 4.80808 18.3798 5.62025C19.1919 6.43242 19.8317 7.385 20.299 8.478C20.7663 9.57083 21 10.7448 21 12C21 13.2513 20.7663 14.4244 20.299 15.5192C19.8317 16.6141 19.1919 17.5676 18.3798 18.3798C17.5676 19.1919 16.615 19.8317 15.522 20.299C14.4292 20.7663 13.2552 21 12 21Z" fill="#533800"/>
</g>
</svg>
