<svg width="24" height="24" viewBox="0 0 24 24" fill="none" xmlns="http://www.w3.org/2000/svg">
<path d="M10.4067 18.4401L4 12.0001L10.4067 5.56014C10.4645 5.48415 10.538 5.42149 10.6222 5.37639C10.7064 5.33129 10.7993 5.3048 10.8946 5.29872C10.9899 5.29263 11.0854 5.3071 11.1747 5.34114C11.2639 5.37518 11.3448 5.42799 11.4118 5.496C11.4789 5.56402 11.5305 5.64564 11.5633 5.73535C11.596 5.82506 11.6091 5.92076 11.6017 6.01598C11.5943 6.11119 11.5664 6.2037 11.5201 6.28723C11.4738 6.37076 11.4101 6.44337 11.3333 6.50014L6.54 11.3335L19.2933 11.3335C19.4701 11.3335 19.6397 11.4037 19.7647 11.5287C19.8898 11.6538 19.96 11.8233 19.96 12.0001C19.96 12.1769 19.8898 12.3465 19.7647 12.4715C19.6397 12.5966 19.4701 12.6668 19.2933 12.6668L6.54 12.6668L11.3333 17.5001C11.458 17.6257 11.5277 17.7956 11.527 17.9725C11.5264 18.1494 11.4555 18.3188 11.33 18.4435C11.2045 18.5681 11.0346 18.6378 10.8576 18.6372C10.6807 18.6365 10.5113 18.5657 10.3867 18.4401L10.4067 18.4401Z" fill="#111111"/>
</svg>
