<svg width="24" height="25" viewBox="0 0 24 25" fill="none" xmlns="http://www.w3.org/2000/svg">
<mask id="mask0_650_1811" style="mask-type:alpha" maskUnits="userSpaceOnUse" x="0" y="0" width="24" height="25">
<rect y="0.5" width="24" height="24" fill="#D9D9D9"/>
</mask>
<g mask="url(#mask0_650_1811)">
<path d="M9.18449 12.5L16.7172 20.0328C16.9159 20.2314 17.0127 20.4653 17.0077 20.7345C17.0026 21.0038 16.9007 21.2378 16.702 21.4365C16.5032 21.6352 16.2692 21.7345 16 21.7345C15.7308 21.7345 15.4968 21.6352 15.298 21.4365L7.62699 13.7808C7.44615 13.5999 7.31216 13.3973 7.22499 13.173C7.13782 12.9487 7.09424 12.7243 7.09424 12.5C7.09424 12.2757 7.13782 12.0513 7.22499 11.827C7.31216 11.6027 7.44615 11.4001 7.62699 11.2193L15.298 3.54801C15.4968 3.34935 15.7334 3.2526 16.0077 3.25776C16.2821 3.26293 16.5186 3.36485 16.7172 3.56351C16.9159 3.76218 17.0152 3.99618 17.0152 4.26551C17.0152 4.53468 16.9159 4.7686 16.7172 4.96727L9.18449 12.5Z" fill="#D9D9D9"/>
</g>
</svg>
