<svg width="144" height="220" viewBox="0 0 144 220" fill="none" xmlns="http://www.w3.org/2000/svg">
<path d="M50.4205 113.868C50.3838 117.723 49.172 121.689 46.9321 124.81C45.9406 126.206 44.8023 127.491 43.4804 128.519C42.8561 129.033 42.3053 129.4 41.7178 129.731C41.3873 129.914 41.0568 130.098 40.7263 130.245C41.6076 129.841 39.2575 130.796 40.0287 130.502C40.7263 130.245 38.9638 130.796 39.1106 130.759C39.9552 130.539 38.7802 130.832 38.5598 130.869C37.7153 131.016 37.4582 131.016 36.3933 130.979C34.7042 130.906 33.0518 130.539 31.4728 129.951C27.8742 128.629 24.7897 126.206 22.513 123.121C17.8495 116.915 17.3722 107.882 21.3012 101.199C22.1825 99.6935 23.3209 98.2247 24.6061 97.0497C25.1569 96.5356 25.8179 96.0215 26.4421 95.6176C27.4703 94.9199 26.9929 95.2504 26.846 95.3605C27.0296 95.2504 28.6086 94.4425 28.1312 94.6628C28.4617 94.516 28.8289 94.3691 29.1594 94.2589C28.168 94.6261 29.8938 94.0386 29.9305 94.0386C29.0125 94.2589 31.3994 93.8183 31.2525 93.855C32.5377 93.7448 34.4839 93.9284 35.9527 94.3324C44.7289 96.6457 50.2736 105.018 50.4205 113.831C50.4205 116.475 61.1062 114.639 61.0695 110.967C60.9226 101.199 54.2027 92.4596 44.839 89.6689C34.0432 86.4742 20.8973 90.0728 13.5165 98.7021C7.05372 106.266 6.17243 117.319 11.6438 125.692C17.5925 134.835 28.7922 137.662 39.0372 135.459C51.0815 132.889 60.8858 123.672 61.0695 110.967C61.0695 108.396 50.494 110.122 50.4205 113.831V113.868Z" fill="#533800"/>
<path d="M34.0432 5.17654C15.6463 10.1705 3.82231 24.7852 2.86758 43.6962L0.701071 85.3739L0.00338351 99.291C-0.216939 103.44 10.3953 101.311 10.6156 97.8956C12.0844 74.2844 46.3813 75.0555 58.4623 89.5233C60.2983 91.7265 61.3999 94.7009 63.9703 96.1697C67.165 98.0057 71.3144 97.6753 74.656 96.5002C81.4125 94.1501 83.579 86.8427 89.1973 82.8402C99.2954 75.5696 119.198 76.3774 128.121 85.631C131.977 89.6335 133.886 95.9861 132.638 101.457L143.286 99.3277V46.5604C143.286 37.7475 143.727 29.2651 139.174 21.2234C131.242 7.19616 115.783 4.0382 101.058 1.83498C78.6952 -1.50658 56.002 -0.221366 34.0432 5.17654C32.5744 5.54374 28.8289 7.01256 29.4164 9.14234C30.004 11.2721 34.0432 10.5744 35.4019 10.244C54.0926 5.6539 73.5176 4.55229 92.5755 7.15944C107.154 9.14234 123.127 11.8964 129.92 26.7681C133.188 33.9653 132.638 41.7133 132.638 49.3879V102.155C132.638 105.497 142.625 102.853 143.286 100.025C148.978 74.9086 114.387 69.9881 97.3859 73.6968C89.3074 75.4594 81.7797 79.315 76.1248 85.3739C74.913 86.6959 73.7747 88.0545 72.7465 89.5233C72.3059 90.1476 71.8652 90.8085 71.498 91.4695L72.7098 91.2125C72.1223 90.7351 71.6449 90.1843 71.3144 89.5233C69.3315 86.8427 67.6791 84.1989 65.1087 81.9956C52.2565 71.0162 30.261 70.7959 15.683 78.2134C7.86155 82.2527 0.59091 90.1109 0.00338351 99.291L10.6156 97.8956C11.35 83.6481 12.0844 69.4005 12.8188 55.1163C13.0759 49.9387 13.2595 44.7611 13.6267 39.6203C14.5079 26.5478 22.256 13.8058 35.4386 10.244C36.9074 9.84003 40.6529 8.44465 40.0654 6.27815C39.4778 4.11164 35.4386 4.80933 34.0799 5.17654H34.0432Z" fill="#533800"/>
<path d="M65.6594 18.1747V72.4475C65.6594 78.1759 76.4552 76.7438 76.4552 71.7131V17.4403C76.4552 11.7119 65.6594 13.144 65.6594 18.1747Z" fill="#533800"/>
<path d="M127.827 101.163C124.375 97.0505 119.932 93.4886 115.195 91.0284C105.244 85.8508 92.8692 88.3845 85.8556 97.2341C81.5226 102.742 78.7318 110.196 77.5568 117.063C76.7857 121.616 76.8958 126.353 79.6131 130.246C84.5704 137.37 95.6232 137.149 103.224 136.488C109.981 135.901 116.737 134.322 123.164 132.155C124.449 131.715 127.57 129.842 126.064 128.189C124.559 126.537 120.74 127.675 119.051 128.263C121.695 127.382 120.006 127.932 119.308 128.153C118.353 128.446 117.398 128.703 116.48 128.961C115.158 129.328 113.8 129.658 112.441 129.952C110.679 130.613 111.89 130.062 112.441 129.952C112.074 130.099 111.67 130.099 111.303 130.172C110.422 130.319 109.504 130.503 108.622 130.613C107.741 130.723 106.86 130.87 105.978 130.943C105.611 130.98 105.207 131.017 104.84 131.054C104.51 131.054 103.445 131.127 105.024 131.054C104.73 131.054 104.436 131.054 104.179 131.09C103.335 131.127 102.453 131.164 101.609 131.164C101.131 131.164 100.654 131.164 100.177 131.164C99.993 131.164 99.8094 131.164 99.6258 131.164C98.6343 131.164 100.691 131.311 99.6992 131.164C98.8913 131.054 98.0835 130.98 97.2389 130.833C96.7983 130.76 96.3576 130.65 95.917 130.54C94.8888 130.319 96.3209 130.723 95.3662 130.393C94.5583 130.099 93.7872 129.805 93.0528 129.438C92.759 129.291 92.4653 129.144 92.2082 128.961C92.8692 129.364 91.6941 128.557 91.5105 128.41C88.9401 126.28 87.9119 123.379 87.8018 119.744C87.6549 113.758 90.1152 107.185 92.759 101.934C93.3466 100.796 94.0075 99.6944 94.7052 98.6662C95.1091 98.1154 95.5131 97.5646 95.917 97.0138C96.1373 96.7567 97.1655 95.6551 96.7248 96.0591C97.1288 95.6551 97.5694 95.2879 98.0101 94.9207C98.1937 94.7738 98.3773 94.6637 98.5241 94.5168C99.332 93.8558 97.8999 94.884 98.4874 94.5535C98.9281 94.2965 100.177 93.8558 98.7445 94.3332C98.9281 94.2598 99.1117 94.1496 99.2953 94.1129C100.544 93.6355 98.7445 94.2598 99.1117 94.1129C100.544 93.6722 98.5976 94.1129 99.1851 94.0762C99.4054 94.0762 99.6625 94.0394 99.8828 93.966C100.874 93.7824 99.4789 94.1129 99.5156 93.966C99.5156 93.8926 100.47 93.966 100.617 93.966C101.572 93.9293 99.589 93.7824 100.507 93.966C100.764 94.0027 101.058 94.0394 101.315 94.0762C101.682 94.1496 102.013 94.223 102.38 94.2965C103.445 94.5168 101.976 94.1129 103.004 94.4801C103.885 94.7738 104.73 95.1043 105.574 95.4715C106.492 95.9122 107.374 96.3895 108.255 96.9036C108.696 97.1607 109.32 97.5646 110.238 98.2256C111.597 99.217 112.919 100.282 114.167 101.42C115.489 102.632 116.811 103.881 117.949 105.276C120.116 107.883 130.324 104.174 127.864 101.237L127.827 101.163Z" fill="#533800"/>
<path d="M24.8998 150.222C32.6845 156.685 42.8561 160.797 52.6237 163.074C75.6841 168.435 99.2587 162.156 118.978 149.781C120.667 148.716 121.842 146.844 119.859 145.485C117.876 144.126 114.094 145.338 112.331 146.44C95.3663 157.089 76.0146 161.825 56.3692 156.464C50.7877 154.922 45.3898 152.645 40.3591 149.708C38.1192 148.423 36.1363 147.137 34.7776 145.999C31.8032 143.539 21.8887 147.725 24.8998 150.222Z" fill="#533800"/>
<path d="M51.57 186.79C52.56 186.79 53.06 186.99 53.06 187.38L53.65 187.09H54.85C56.62 188.47 57.72 190.07 58.14 191.87C58.14 197.04 56.05 200.22 51.86 201.43C49.08 201.63 47.29 201.73 46.49 201.73C43.49 201.73 42 200.14 42 196.95V196.34C42 191.9 44.19 189.02 48.57 187.68L51.58 186.78L51.57 186.79ZM47.08 195.76C47.54 197.96 48.54 199.05 50.07 199.05C51.28 199.05 52.27 197.15 53.06 193.36C53.06 192.3 52.16 191.11 50.37 189.78H50.07C48.08 191.22 47.08 193.21 47.08 195.76ZM59.93 202.04C59.93 202.23 60.03 202.33 60.23 202.33C59.78 204.53 59.38 205.62 59.03 205.62C62.32 210.55 65.01 214.14 67.1 216.38V218.19C67.1 218.5 66.4 218.9 65.01 219.39C64.63 219.19 64.33 219.09 64.11 219.09C63.41 219.29 63.01 219.39 62.91 219.39C60.6 218.02 58.61 215.72 56.93 212.5L56.34 212.21H55.73C55.1 214.8 53.61 216.09 51.25 216.09L50.64 215.79C50.26 215.99 49.96 216.09 49.74 216.09C49.36 215.89 49.06 215.79 48.84 215.79V215.2C48.84 214.43 49.94 212.24 52.13 208.61C53.92 204.62 55.91 202.63 58.11 202.63C58.11 202.37 58.71 202.17 59.9 202.04H59.93ZM68.61 185C68.61 185.19 68.71 185.29 68.9 185.29C68.3 188.52 68 192.21 68 196.35C68 196.55 67.9 196.65 67.71 196.65C67.71 196.85 67.81 196.95 68 196.95C68 197.16 67.9 197.46 67.71 197.85C67.71 198 67.81 198.59 68 199.64C68 201.23 67 202.12 65.01 202.33C63.02 202 62.02 201.01 62.02 199.34C62.02 190.17 63.22 185.59 65.62 185.59C67.1 185.2 68.09 185 68.61 185Z" fill="#533800"/>
<path d="M75.15 188.58C75.25 188.58 75.65 188.68 76.35 188.88C76.56 188.88 76.86 188.78 77.25 188.58C81.64 189.18 83.84 189.58 83.84 189.78C84.65 189.37 85.25 189.17 85.63 189.17V190.08C84.64 190.8 84.14 191.4 84.14 191.87H82.64C81.9 192.41 80.6 192.91 78.76 193.36V194.27C78.76 195.87 78.96 197.66 79.35 199.64L85.94 198.74H86.84V199.35C86.84 200.34 82.95 201.83 75.17 203.83C74.18 203.39 73.68 201 73.68 196.65V195.75L73.97 192.17H73.07C72.03 192.17 71.44 191.87 71.28 191.26V190.67C71.62 189.8 72.91 189.11 75.16 188.58H75.15ZM93.1 188.28L93.4 188.89V191.27C93.4 191.72 93.5 192.12 93.69 192.47L93.4 193.08L93.69 193.67C93.5 194.05 93.4 194.35 93.4 194.57L93.99 194.87C98.38 194.48 100.67 194.28 100.86 194.28L101.16 194.87C101.16 195.75 99.27 196.64 95.49 197.56C95.49 197.76 95.39 197.86 95.19 197.86H93.69C93.69 202.25 92.9 204.45 91.31 204.45C90.51 204.45 90.11 204.65 90.11 205.04H88.91C88.5 205.04 88.3 204.84 88.3 204.45V202.05L88.6 200.26C88.4 199.87 88.3 199.57 88.3 199.36H88.6L88.3 198.75V198.46C88.3 198.26 88.4 198.16 88.6 198.16L88.3 197.55V197.26C88.3 197.06 88.4 196.96 88.6 196.96C88.6 196.76 88.5 196.66 88.3 196.66L88.6 194.57V190.69C88.6 189.77 90.1 188.97 93.09 188.29L93.1 188.28Z" fill="#533800"/>
</svg>
