<svg width="24" height="24" viewBox="0 0 24 24" fill="none" xmlns="http://www.w3.org/2000/svg">
<mask id="mask0_73_2265" style="mask-type:alpha" maskUnits="userSpaceOnUse" x="0" y="0" width="24" height="24">
<rect width="24" height="24" transform="matrix(-1 0 0 1 24 0)" fill="#D9D9D9"/>
</mask>
<g mask="url(#mask0_73_2265)">
<path d="M14.8155 11.9998L7.28276 19.5325C7.08409 19.7312 6.98726 19.9651 6.99226 20.2343C6.99743 20.5036 7.09934 20.7376 7.29801 20.9363C7.49684 21.1349 7.73084 21.2343 8.00001 21.2343C8.26918 21.2343 8.50318 21.1349 8.70201 20.9363L16.373 13.2805C16.5538 13.0997 16.6878 12.8971 16.775 12.6728C16.8622 12.4484 16.9058 12.2241 16.9058 11.9998C16.9058 11.7754 16.8622 11.5511 16.775 11.3268C16.6878 11.1024 16.5538 10.8999 16.373 10.719L8.70201 3.04777C8.50318 2.8491 8.26659 2.75235 7.99226 2.75752C7.71793 2.76269 7.48143 2.8646 7.28276 3.06327C7.08409 3.26194 6.98476 3.49594 6.98476 3.76527C6.98476 4.03444 7.08409 4.26835 7.28276 4.46702L14.8155 11.9998Z" fill="#111111"/>
</g>
</svg>
