<svg width="11" height="19" viewBox="0 0 11 19" fill="none" xmlns="http://www.w3.org/2000/svg">
<path d="M8.81551 9.50001L1.28276 17.0328C1.08409 17.2314 0.987261 17.4653 0.992261 17.7345C0.997428 18.0038 1.09934 18.2378 1.29801 18.4365C1.49684 18.6352 1.73084 18.7345 2.00001 18.7345C2.26918 18.7345 2.50318 18.6352 2.70201 18.4365L10.373 10.7808C10.5538 10.5999 10.6878 10.3973 10.775 10.173C10.8622 9.94868 10.9058 9.72435 10.9058 9.50001C10.9058 9.27568 10.8622 9.05135 10.775 8.82701C10.6878 8.60268 10.5538 8.4001 10.373 8.21926L2.70201 0.548014C2.50318 0.349348 2.26659 0.252598 1.99226 0.257765C1.71793 0.262931 1.48143 0.364848 1.28276 0.563514C1.08409 0.762181 0.984761 0.996181 0.984761 1.26551C0.984761 1.53468 1.08409 1.7686 1.28276 1.96727L8.81551 9.50001Z" fill="#D9D9D9"/>
</svg>
