<svg width="145" height="212" viewBox="0 0 145 212" fill="none" xmlns="http://www.w3.org/2000/svg">
<path d="M50.4205 113.868C50.3837 117.723 49.172 121.689 46.932 124.81C45.9406 126.206 44.8022 127.491 43.4803 128.519C42.8561 129.033 42.3053 129.4 41.7177 129.731C41.3872 129.914 41.0568 130.098 40.7263 130.245C41.6076 129.841 39.2575 130.796 40.0286 130.502C40.7263 130.245 38.9637 130.796 39.1106 130.759C39.9552 130.539 38.7801 130.832 38.5598 130.869C37.7152 131.016 37.4582 131.016 36.3933 130.979C34.7041 130.906 33.0517 130.539 31.4727 129.951C27.8741 128.629 24.7896 126.206 22.513 123.121C17.8495 116.915 17.3721 107.882 21.3012 101.199C22.1825 99.6935 23.3208 98.2247 24.606 97.0497C25.1568 96.5356 25.8178 96.0215 26.442 95.6176C27.4702 94.9199 26.9928 95.2504 26.846 95.3605C27.0296 95.2504 28.6085 94.4425 28.1312 94.6628C28.4617 94.516 28.8289 94.3691 29.1594 94.2589C28.1679 94.6261 29.8938 94.0386 29.9305 94.0386C29.0125 94.2589 31.3993 93.8183 31.2524 93.855C32.5376 93.7448 34.4838 93.9284 35.9526 94.3324C44.7288 96.6457 50.2736 105.018 50.4205 113.831C50.4205 116.475 61.1061 114.639 61.0694 110.967C60.9225 101.199 54.2027 92.4596 44.839 89.6689C34.0432 86.4742 20.8973 90.0728 13.5165 98.7021C7.05366 106.266 6.17237 117.319 11.6437 125.692C17.5924 134.835 28.7921 137.662 39.0371 135.459C51.0814 132.889 60.8858 123.672 61.0694 110.967C61.0694 108.396 50.4939 110.122 50.4205 113.831V113.868Z" fill="#F6F5F3"/>
<path d="M34.0432 5.17654C15.6463 10.1705 3.82231 24.7852 2.86758 43.6962L0.701071 85.3739L0.00338351 99.291C-0.216939 103.44 10.3953 101.311 10.6156 97.8956C12.0844 74.2844 46.3813 75.0555 58.4623 89.5233C60.2983 91.7265 61.3999 94.7009 63.9703 96.1697C67.165 98.0057 71.3144 97.6753 74.656 96.5002C81.4125 94.1501 83.579 86.8427 89.1973 82.8402C99.2954 75.5696 119.198 76.3774 128.121 85.631C131.977 89.6335 133.886 95.9861 132.638 101.457L143.286 99.3277V46.5604C143.286 37.7475 143.727 29.2651 139.174 21.2234C131.242 7.19616 115.783 4.0382 101.058 1.83498C78.6952 -1.50658 56.002 -0.221366 34.0432 5.17654C32.5744 5.54374 28.8289 7.01256 29.4164 9.14234C30.004 11.2721 34.0432 10.5744 35.4019 10.244C54.0926 5.6539 73.5176 4.55229 92.5755 7.15944C107.154 9.14234 123.127 11.8964 129.92 26.7681C133.188 33.9653 132.638 41.7133 132.638 49.3879V102.155C132.638 105.497 142.625 102.853 143.286 100.025C148.978 74.9086 114.387 69.9881 97.3859 73.6968C89.3074 75.4594 81.7797 79.315 76.1248 85.3739C74.913 86.6959 73.7747 88.0545 72.7465 89.5233C72.3059 90.1476 71.8652 90.8085 71.498 91.4695L72.7098 91.2125C72.1223 90.7351 71.6449 90.1843 71.3144 89.5233C69.3315 86.8427 67.6791 84.1989 65.1087 81.9956C52.2565 71.0162 30.261 70.7959 15.683 78.2134C7.86155 82.2527 0.59091 90.1109 0.00338351 99.291L10.6156 97.8956C11.35 83.6481 12.0844 69.4005 12.8188 55.1163C13.0759 49.9387 13.2595 44.7611 13.6267 39.6203C14.5079 26.5478 22.256 13.8058 35.4386 10.244C36.9074 9.84003 40.6529 8.44465 40.0654 6.27815C39.4778 4.11164 35.4386 4.80933 34.0799 5.17654H34.0432Z" fill="#F6F5F3"/>
<path d="M65.6595 18.1747V72.4475C65.6595 78.1759 76.4553 76.7438 76.4553 71.7131V17.4403C76.4553 11.7119 65.6595 13.144 65.6595 18.1747Z" fill="#F6F5F3"/>
<path d="M127.827 101.163C124.375 97.0505 119.932 93.4886 115.195 91.0284C105.244 85.8508 92.8693 88.3845 85.8557 97.2341C81.5226 102.742 78.7319 110.196 77.5569 117.063C76.7857 121.616 76.8959 126.353 79.6132 130.246C84.5704 137.37 95.6233 137.149 103.224 136.488C109.981 135.901 116.738 134.322 123.164 132.155C124.449 131.715 127.57 129.842 126.065 128.189C124.559 126.537 120.74 127.675 119.051 128.263C121.695 127.382 120.006 127.932 119.308 128.153C118.353 128.446 117.398 128.703 116.48 128.961C115.159 129.328 113.8 129.658 112.441 129.952C110.679 130.613 111.89 130.062 112.441 129.952C112.074 130.099 111.67 130.099 111.303 130.172C110.422 130.319 109.504 130.503 108.622 130.613C107.741 130.723 106.86 130.87 105.978 130.943C105.611 130.98 105.207 131.017 104.84 131.054C104.51 131.054 103.445 131.127 105.024 131.054C104.73 131.054 104.436 131.054 104.179 131.09C103.335 131.127 102.453 131.164 101.609 131.164C101.131 131.164 100.654 131.164 100.177 131.164C99.993 131.164 99.8094 131.164 99.6258 131.164C98.6344 131.164 100.691 131.311 99.6993 131.164C98.8914 131.054 98.0836 130.98 97.239 130.833C96.7983 130.76 96.3577 130.65 95.9171 130.54C94.8889 130.319 96.321 130.723 95.3662 130.393C94.5584 130.099 93.7873 129.805 93.0529 129.438C92.7591 129.291 92.4653 129.144 92.2083 128.961C92.8693 129.364 91.6942 128.557 91.5106 128.41C88.9402 126.28 87.912 123.379 87.8018 119.744C87.655 113.758 90.1152 107.185 92.7591 101.934C93.3466 100.796 94.0076 99.6944 94.7053 98.6662C95.1092 98.1154 95.5131 97.5646 95.9171 97.0138C96.1374 96.7567 97.1656 95.6551 96.7249 96.0591C97.1288 95.6551 97.5695 95.2879 98.0101 94.9207C98.1937 94.7738 98.3773 94.6637 98.5242 94.5168C99.3321 93.8558 97.9 94.884 98.4875 94.5535C98.9281 94.2965 100.177 93.8558 98.7445 94.3332C98.9281 94.2598 99.1117 94.1496 99.2953 94.1129C100.544 93.6355 98.7445 94.2598 99.1117 94.1129C100.544 93.6722 98.5976 94.1129 99.1852 94.0762C99.4055 94.0762 99.6625 94.0394 99.8829 93.966C100.874 93.7824 99.4789 94.1129 99.5157 93.966C99.5157 93.8926 100.47 93.966 100.617 93.966C101.572 93.9293 99.5891 93.7824 100.507 93.966C100.764 94.0027 101.058 94.0394 101.315 94.0762C101.682 94.1496 102.013 94.223 102.38 94.2965C103.445 94.5168 101.976 94.1129 103.004 94.4801C103.885 94.7738 104.73 95.1043 105.575 95.4715C106.493 95.9122 107.374 96.3895 108.255 96.9036C108.696 97.1607 109.32 97.5646 110.238 98.2256C111.597 99.217 112.919 100.282 114.167 101.42C115.489 102.632 116.811 103.881 117.949 105.276C120.116 107.883 130.324 104.174 127.864 101.237L127.827 101.163Z" fill="#F6F5F3"/>
<path d="M24.8998 150.222C32.6845 156.685 42.8561 160.797 52.6237 163.074C75.6841 168.435 99.2587 162.156 118.978 149.781C120.667 148.716 121.842 146.844 119.859 145.485C117.876 144.126 114.094 145.338 112.331 146.44C95.3663 157.089 76.0146 161.825 56.3692 156.464C50.7877 154.922 45.3898 152.645 40.3591 149.708C38.1192 148.423 36.1363 147.137 34.7776 145.999C31.8032 143.539 21.8887 147.725 24.8998 150.222Z" fill="#F6F5F3"/>
<path d="M94.57 178.79C95.56 178.79 96.06 178.99 96.06 179.38L96.65 179.09H97.85C99.62 180.47 100.72 182.07 101.14 183.87C101.14 189.04 99.05 192.22 94.86 193.43C92.08 193.63 90.29 193.73 89.49 193.73C86.49 193.73 85 192.14 85 188.95V188.34C85 183.9 87.19 181.02 91.57 179.68L94.58 178.78L94.57 178.79ZM90.08 187.76C90.54 189.96 91.54 191.05 93.07 191.05C94.28 191.05 95.27 189.15 96.06 185.36C96.06 184.3 95.16 183.11 93.37 181.78H93.07C91.08 183.22 90.08 185.21 90.08 187.76ZM102.93 194.04C102.93 194.23 103.03 194.33 103.23 194.33C102.78 196.53 102.38 197.62 102.03 197.62C105.32 202.55 108.01 206.14 110.1 208.38V210.19C110.1 210.5 109.4 210.9 108.01 211.39C107.63 211.19 107.33 211.09 107.11 211.09C106.41 211.29 106.01 211.39 105.91 211.39C103.6 210.02 101.61 207.72 99.93 204.5L99.34 204.21H98.73C98.1 206.8 96.61 208.09 94.25 208.09L93.64 207.79C93.26 207.99 92.96 208.09 92.74 208.09C92.36 207.89 92.06 207.79 91.84 207.79V207.2C91.84 206.43 92.94 204.24 95.13 200.61C96.92 196.62 98.91 194.63 101.11 194.63C101.11 194.37 101.71 194.17 102.9 194.04H102.93ZM111.61 177C111.61 177.19 111.71 177.29 111.9 177.29C111.3 180.52 111 184.21 111 188.35C111 188.55 110.9 188.65 110.71 188.65C110.71 188.85 110.81 188.95 111 188.95C111 189.16 110.9 189.46 110.71 189.85C110.71 190 110.81 190.59 111 191.64C111 193.23 110 194.12 108.01 194.33C106.02 194 105.02 193.01 105.02 191.34C105.02 182.17 106.22 177.59 108.62 177.59C110.1 177.2 111.09 177 111.61 177Z" fill="#F6F5F3"/>
<path d="M118.15 180.58C118.25 180.58 118.65 180.68 119.35 180.88C119.56 180.88 119.86 180.78 120.25 180.58C124.64 181.18 126.84 181.58 126.84 181.78C127.65 181.37 128.25 181.17 128.63 181.17V182.08C127.64 182.8 127.14 183.4 127.14 183.87H125.64C124.9 184.41 123.6 184.91 121.76 185.36V186.27C121.76 187.87 121.96 189.66 122.35 191.64L128.94 190.74H129.84V191.35C129.84 192.34 125.95 193.83 118.17 195.83C117.18 195.39 116.68 193 116.68 188.65V187.75L116.97 184.17H116.07C115.03 184.17 114.44 183.87 114.28 183.26V182.67C114.62 181.8 115.91 181.11 118.16 180.58H118.15ZM136.1 180.28L136.4 180.89V183.27C136.4 183.72 136.5 184.12 136.69 184.47L136.4 185.08L136.69 185.67C136.5 186.05 136.4 186.35 136.4 186.57L136.99 186.87C141.38 186.48 143.67 186.28 143.86 186.28L144.16 186.87C144.16 187.75 142.27 188.64 138.49 189.56C138.49 189.76 138.39 189.86 138.19 189.86H136.69C136.69 194.25 135.9 196.45 134.31 196.45C133.51 196.45 133.11 196.65 133.11 197.04H131.91C131.5 197.04 131.3 196.84 131.3 196.45V194.05L131.6 192.26C131.4 191.87 131.3 191.57 131.3 191.36H131.6L131.3 190.75V190.46C131.3 190.26 131.4 190.16 131.6 190.16L131.3 189.55V189.26C131.3 189.06 131.4 188.96 131.6 188.96C131.6 188.76 131.5 188.66 131.3 188.66L131.6 186.57V182.69C131.6 181.77 133.1 180.97 136.09 180.29L136.1 180.28Z" fill="#F6F5F3"/>
</svg>
