<svg width="24" height="24" viewBox="0 0 24 24" fill="none" xmlns="http://www.w3.org/2000/svg">
<mask id="mask0_87_1555" style="mask-type:alpha" maskUnits="userSpaceOnUse" x="0" y="0" width="24" height="24">
<rect width="24" height="24" fill="#D9D9D9"/>
</mask>
<g mask="url(#mask0_87_1555)">
<path d="M16.8475 19C17.4582 19 17.967 18.8093 18.374 18.428C18.781 18.0465 18.9897 17.5193 19 16.8463C19.0104 16.2346 18.8069 15.7227 18.3895 15.3105C17.9722 14.8983 17.4582 14.6923 16.8475 14.6923C16.2369 14.6923 15.725 14.8988 15.312 15.312C14.8989 15.725 14.6923 16.2368 14.6923 16.8475C14.6923 17.4582 14.8989 17.9696 15.312 18.3818C15.725 18.7939 16.2369 19 16.8475 19ZM20.8328 21.8673L18.8578 19.8923C18.5706 20.0948 18.2594 20.2467 17.924 20.348C17.5889 20.4493 17.2296 20.5 16.8463 20.5C15.8414 20.5 14.9813 20.1423 14.2658 19.427C13.5501 18.7117 13.1923 17.8518 13.1923 16.8473C13.1923 15.8428 13.5499 14.9824 14.2653 14.2663C14.9806 13.5503 15.8405 13.1923 16.845 13.1923C17.8497 13.1923 18.71 13.5501 19.426 14.2658C20.142 14.9813 20.5 15.8414 20.5 16.8463C20.5 17.2226 20.4494 17.5785 20.348 17.914C20.2467 18.2495 20.098 18.5608 19.902 18.848L21.877 20.823C22.0154 20.9615 22.0862 21.1356 22.0895 21.3453C22.0927 21.5548 22.025 21.7303 21.8865 21.872C21.748 22.0137 21.5724 22.0829 21.3595 22.0798C21.1467 22.0766 20.9711 22.0058 20.8328 21.8673ZM3.29803 19.3078C2.8892 19.3078 2.53703 19.16 2.24153 18.8645C1.94603 18.5688 1.79828 18.2166 1.79828 17.8078V17.0823C1.79828 16.5684 1.93128 16.1093 2.19728 15.7048C2.46328 15.3003 2.81853 14.9856 3.26303 14.7608C4.21336 14.2959 5.16895 13.9375 6.12978 13.6855C7.09078 13.4337 8.14686 13.3078 9.29803 13.3078C9.56603 13.3078 9.8287 13.3173 10.086 13.3365C10.3432 13.3558 10.6004 13.3783 10.8578 13.4038C11.1334 13.4411 11.3324 13.5834 11.4548 13.8308C11.5773 14.0783 11.5712 14.3366 11.4365 14.6058C11.2827 14.9634 11.1715 15.3285 11.103 15.701C11.0344 16.0733 11 16.4551 11 16.8463C11 17.0783 11.0153 17.3103 11.0458 17.5423C11.0761 17.7743 11.1218 18.0063 11.1828 18.2385C11.2571 18.5142 11.2172 18.7613 11.063 18.9798C10.909 19.1984 10.6989 19.3078 10.4328 19.3078H3.29803ZM17.9325 8.19226C17.9325 9.15476 17.5899 9.97876 16.9045 10.6643C16.2192 11.3496 15.3953 11.6923 14.4328 11.6923C14.3199 11.6923 14.1764 11.6794 14.002 11.6538C13.8275 11.6281 13.6839 11.5999 13.5713 11.5693C13.9656 11.0951 14.2687 10.5691 14.4805 9.99126C14.6922 9.41343 14.798 8.81343 14.798 8.19126C14.798 7.56893 14.69 6.97118 14.474 6.39801C14.258 5.82501 13.9571 5.29751 13.5713 4.81551C13.7148 4.76418 13.8584 4.73084 14.002 4.71551C14.1455 4.70001 14.2891 4.69226 14.4328 4.69226C15.3953 4.69226 16.2192 5.03501 16.9045 5.72051C17.5899 6.40584 17.9325 7.22976 17.9325 8.19226ZM9.29803 11.6923C8.33553 11.6923 7.51161 11.3496 6.82628 10.6643C6.14095 9.97876 5.79828 9.15476 5.79828 8.19226C5.79828 7.22976 6.14095 6.40584 6.82628 5.72051C7.51161 5.03501 8.33553 4.69226 9.29803 4.69226C10.2605 4.69226 11.0845 5.03501 11.77 5.72051C12.4554 6.40584 12.798 7.22976 12.798 8.19226C12.798 9.15476 12.4554 9.97876 11.77 10.6643C11.0845 11.3496 10.2605 11.6923 9.29803 11.6923Z" fill="#111111"/>
</g>
</svg>
