<svg width="24" height="24" viewBox="0 0 24 24" fill="none" xmlns="http://www.w3.org/2000/svg">
<mask id="mask0_155_2168" style="mask-type:alpha" maskUnits="userSpaceOnUse" x="0" y="0" width="24" height="24">
<rect width="24" height="24" fill="#D9D9D9"/>
</mask>
<g mask="url(#mask0_155_2168)">
<path d="M12.5 17.3197C13.3103 16.8672 14.128 16.5406 14.953 16.3399C15.778 16.1392 16.627 16.0389 17.5 16.0389C18.1 16.0389 18.6394 16.0761 19.1182 16.1504C19.5971 16.2247 20.0192 16.3235 20.3845 16.4467C20.5385 16.5107 20.6796 16.501 20.8078 16.4177C20.9359 16.3343 21 16.2029 21 16.0234V7.00816C21 6.89266 20.9679 6.79008 20.9038 6.70041C20.8398 6.61075 20.7308 6.53383 20.577 6.46966C20.027 6.27483 19.5267 6.1415 19.076 6.06966C18.6253 5.99783 18.1 5.96191 17.5 5.96191C16.627 5.96191 15.7558 6.09075 14.8865 6.34841C14.0173 6.60608 13.2218 6.99266 12.5 7.50816V17.3197ZM12 18.4562C11.8437 18.4562 11.6998 18.4366 11.5683 18.3974C11.4369 18.3584 11.3116 18.3082 11.1923 18.2467C10.4654 17.8505 9.70842 17.5502 8.92125 17.3457C8.13408 17.1412 7.327 17.0389 6.5 17.0389C5.9795 17.0389 5.46825 17.0825 4.96625 17.1697C4.46442 17.2568 3.97567 17.3966 3.5 17.5889C3.13717 17.7337 2.7965 17.6902 2.478 17.4582C2.15933 17.2262 2 16.9057 2 16.4967V6.83116C2 6.58366 2.06508 6.35416 2.19525 6.14266C2.32542 5.93116 2.50775 5.78375 2.74225 5.70041C3.33325 5.44525 3.94517 5.25841 4.578 5.13991C5.21067 5.02125 5.85133 4.96191 6.5 4.96191C7.4795 4.96191 8.43492 5.10291 9.36625 5.38491C10.2978 5.66708 11.1757 6.07741 12 6.61591C12.8243 6.07741 13.7022 5.66708 14.6337 5.38491C15.5651 5.10291 16.5205 4.96191 17.5 4.96191C18.1487 4.96191 18.7893 5.02125 19.422 5.13991C20.0548 5.25841 20.6667 5.44525 21.2577 5.70041C21.4923 5.78375 21.6746 5.93116 21.8048 6.14266C21.9349 6.35416 22 6.58366 22 6.83116V16.4967C22 16.9057 21.8279 17.2197 21.4837 17.4389C21.1394 17.6581 20.773 17.6952 20.3845 17.5504C19.9218 17.3709 19.4491 17.2407 18.9663 17.1599C18.4836 17.0792 17.9948 17.0389 17.5 17.0389C16.673 17.0389 15.8659 17.1412 15.0788 17.3457C14.2916 17.5502 13.5346 17.8505 12.8077 18.2467C12.6884 18.3082 12.5631 18.3584 12.4318 18.3974C12.3003 18.4366 12.1563 18.4562 12 18.4562Z" fill="#111111"/>
</g>
</svg>
